<svg version="1.1" id="Layer_1" xmlns="http://www.w3.org/2000/svg" xmlns:xlink="http://www.w3.org/1999/xlink" x="0px" y="0px"
	 width="100%" viewBox="0 0 256 256" enable-background="new 0 0 256 256" xml:space="preserve">
<path fill="none" opacity="1.000000" stroke="none" 
	d="
M142.000000,257.000000 
	C95.833336,257.000000 50.166576,256.963654 4.500227,257.083435 
	C1.517136,257.091248 0.914386,256.482178 0.918056,253.499908 
	C1.020212,170.500046 1.020208,87.500000 0.918063,4.500124 
	C0.914393,1.517959 1.517778,0.914381 4.500077,0.918052 
	C87.499947,1.020212 170.499985,1.020207 253.499847,0.918067 
	C256.481964,0.914397 257.085632,1.517708 257.081940,4.500062 
	C256.979797,87.499931 256.979797,170.499969 257.081940,253.499832 
	C257.085602,256.481903 256.483582,257.094513 253.499771,257.084137 
	C216.500198,256.955353 179.500015,257.000000 142.000000,257.000000 
z"/>
<path fill="#FDFDFD" opacity="1.000000" stroke="none" 
	d="
M41.040161,156.959290 
	C37.732071,153.639526 34.869270,150.335938 31.557508,147.569855 
	C28.585529,145.087570 29.013977,143.646118 31.610472,141.070511 
	C57.759689,115.131783 83.759743,89.042702 109.810814,63.004978 
	C112.646881,60.170349 115.773438,57.733654 113.291374,52.781349 
	C112.270073,50.743626 114.263458,49.721561 116.588303,50.198925 
	C123.550484,51.628479 125.146767,49.897121 123.468689,42.888859 
	C123.018806,41.009975 128.491623,34.869232 130.066681,35.795750 
	C135.239639,38.838726 137.948135,35.245800 140.533890,32.124115 
	C143.320221,28.760267 145.010742,28.887232 148.138046,32.050179 
	C174.034058,58.241375 200.100967,84.264458 226.251526,110.201920 
	C228.979355,112.907524 229.097580,114.277596 226.287445,117.071289 
	C189.765747,153.379089 153.346024,189.789886 117.043037,226.316315 
	C114.181023,229.195953 112.808731,228.866837 110.170609,226.205276 
	C87.293129,203.124680 64.269890,180.188553 41.040161,156.959290 
z"/>
<path fill="#EF6604" opacity="1.000000" stroke="none" 
	d="
M179.057098,48.942631 
	C170.680634,40.558018 162.618164,32.357735 154.384689,24.332916 
	C152.196625,22.200293 151.768707,20.965900 154.149490,18.447067 
	C157.668442,14.724067 160.669739,12.084734 166.251724,14.927406 
	C170.220901,16.948751 174.891251,16.153055 178.857971,14.222810 
	C181.899002,12.743017 183.671631,13.487110 185.613739,15.816252 
	C187.314163,17.855549 189.212189,19.782022 191.261551,21.468328 
	C196.619827,25.877333 198.968018,30.113462 196.937286,38.084877 
	C193.090652,53.184303 209.457733,66.106316 224.612503,60.711781 
	C228.059402,59.484818 230.062714,59.872341 232.230698,62.461971 
	C233.722015,64.243347 235.393509,65.915459 237.181351,67.399170 
	C242.479111,71.795700 246.621109,76.233818 242.549271,83.932243 
	C241.012344,86.838013 242.019730,90.726364 243.541275,93.630836 
	C245.415405,97.208374 244.309402,99.215782 241.682587,101.652679 
	C236.570099,106.395561 236.685333,106.553429 231.631546,101.504677 
	C214.183411,84.073990 196.747589,66.630997 179.057098,48.942631 
z"/>
<path fill="#EF6604" opacity="1.000000" stroke="none" 
	d="
M27.736696,197.438797 
	C23.591608,193.286041 19.826614,189.261353 15.761913,185.566360 
	C13.482925,183.494644 12.775881,181.739227 14.228320,178.776871 
	C16.361994,174.425064 16.940233,169.331406 14.667920,165.222198 
	C11.934460,160.279053 14.757783,158.220474 17.455971,155.179169 
	C20.308041,151.964386 21.969721,151.870316 25.151945,155.090149 
	C51.040306,181.284561 77.099495,207.311203 103.262405,233.231720 
	C106.135162,236.077835 105.820038,237.488831 103.212570,240.222229 
	C99.971550,243.619736 97.319107,245.640030 92.317513,243.173660 
	C88.216782,241.151520 83.397858,241.707062 79.228188,243.792801 
	C76.254173,245.280457 74.400467,244.594040 72.447861,242.218567 
	C70.762817,240.168625 68.854950,238.247269 66.803871,236.563522 
	C61.713467,232.384766 59.479794,228.523361 61.430176,220.824326 
	C65.412888,205.102798 48.875202,192.189590 33.297321,197.691452 
	C31.587349,198.295395 29.758072,200.135941 27.736696,197.438797 
z"/>
<path fill="#040405" opacity="1.000000" stroke="none" 
	d="
M134.488190,103.817001 
	C133.733994,100.938927 132.478317,98.372131 134.894119,96.037331 
	C137.422745,93.593483 140.054138,94.766670 142.753036,95.829315 
	C157.582977,101.668350 172.448654,107.416672 187.274399,113.266235 
	C193.606384,115.764549 194.285110,119.177605 189.456131,124.020386 
	C175.454803,138.061737 161.399826,152.049561 147.402206,166.094589 
	C142.421112,171.092560 136.473160,172.980331 129.626083,171.596573 
	C122.435280,170.143356 117.775101,164.994736 117.662521,158.816742 
	C117.551239,152.709976 122.088562,147.029633 128.936417,145.322769 
	C135.196564,143.762360 141.277054,144.337509 146.240845,148.961319 
	C147.926514,150.531540 148.806839,150.809937 150.457153,148.972687 
	C153.343109,145.759888 156.526749,142.814499 160.156601,139.186417 
	C155.250870,137.257812 150.742615,135.494858 146.241516,133.713821 
	C139.139801,130.903732 131.982864,128.220688 124.972786,125.197525 
	C122.075554,123.948067 120.304924,124.424110 118.139183,126.696785 
	C111.473808,133.691330 104.605110,140.497803 97.673256,147.231018 
	C91.674088,153.058273 83.025078,154.357452 75.985504,150.771927 
	C66.566055,145.974197 65.811890,134.414093 74.527779,128.427002 
	C81.303513,123.772636 90.519897,123.955421 96.756561,129.455170 
	C99.163467,131.577682 100.145721,130.751953 101.834984,128.997986 
	C106.226471,124.438278 110.821190,120.074219 115.209763,115.511803 
	C117.594528,113.032555 120.121269,112.240211 123.622459,113.899864 
	C129.361511,113.864265 133.790436,116.840195 138.577148,118.559669 
	C146.560715,121.427528 154.348694,124.837425 162.280258,127.860329 
	C167.326477,129.783554 172.336182,127.710716 174.638077,122.833176 
	C176.002213,119.942696 173.211960,119.896179 171.813675,119.369423 
	C160.909683,115.261673 150.181595,110.708855 139.281143,106.595482 
	C137.581146,105.953979 135.734055,105.601074 134.488190,103.817001 
z"/>
<path fill="#134DC2" opacity="1.000000" stroke="none" 
	d="
M134.226730,103.672165 
	C148.000580,108.683693 161.419174,113.983223 174.911819,119.086952 
	C178.220398,120.338448 178.102325,121.313423 175.782867,123.678368 
	C168.106918,131.504837 168.193405,131.579346 157.904785,127.502640 
	C146.801895,123.103302 135.692734,118.719757 124.294510,114.119293 
	C127.301384,110.568855 130.600067,107.228447 134.226730,103.672165 
z"/>
<path fill="#070707" opacity="1.000000" stroke="none" 
	d="
M107.111740,210.925598 
	C104.639763,208.447571 102.385414,206.256485 100.214928,203.985245 
	C97.914986,201.578491 97.665741,198.893234 100.084427,196.546448 
	C102.350586,194.347687 104.939682,194.707840 107.151375,196.843536 
	C110.599899,200.173599 113.977005,203.578506 117.348183,206.987503 
	C119.623924,209.288803 120.258713,211.982010 117.938934,214.453262 
	C115.380630,217.178604 112.628235,216.442352 110.174477,213.980988 
	C109.240616,213.044220 108.302460,212.111725 107.111740,210.925598 
z"/>
<path fill="#0D0D0D" opacity="1.000000" stroke="none" 
	d="
M90.249313,193.914490 
	C87.751434,191.466080 87.399307,189.053665 89.478867,186.630524 
	C91.051582,184.797974 93.147171,184.389023 95.322166,185.447449 
	C97.484985,186.499924 98.426781,188.352798 98.095322,190.763611 
	C97.614182,194.263092 95.001266,195.423981 90.249313,193.914490 
z"/>
<path fill="#1148B8" opacity="1.000000" stroke="none" 
	d="
M87.133133,142.281860 
	C86.612144,142.462997 86.460045,142.537567 86.299850,142.565079 
	C83.178764,143.101456 80.208252,142.800751 78.665932,139.669617 
	C77.867271,138.048203 79.516876,136.965134 80.804184,136.276428 
	C83.957016,134.589661 87.452820,134.243637 89.966911,136.898453 
	C92.724747,139.810669 89.636536,140.987045 87.133133,142.281860 
z"/>
<path fill="#114BBE" opacity="1.000000" stroke="none" 
	d="
M128.191498,159.634796 
	C129.395111,154.923233 135.903198,152.972961 139.060074,155.989731 
	C140.864548,157.714111 140.337097,159.404449 138.493240,160.527267 
	C135.079498,162.606094 131.609680,162.896484 128.191498,159.634796 
z"/>
</svg>