<?xml version="1.0" encoding="UTF-8"?>
<!DOCTYPE svg PUBLIC "-//W3C//DTD SVG 1.1//EN" "http://www.w3.org/Graphics/SVG/1.1/DTD/svg11.dtd">
<!-- Creator: CorelDRAW -->
<svg xmlns="http://www.w3.org/2000/svg" xml:space="preserve" width="70mm" height="105mm" version="1.1" style="shape-rendering:geometricPrecision; text-rendering:geometricPrecision; image-rendering:optimizeQuality; fill-rule:evenodd; clip-rule:evenodd"
viewBox="0 0 7000 10500"
 xmlns:xlink="http://www.w3.org/1999/xlink"
 xmlns:xodm="http://www.corel.com/coreldraw/odm/2003">
 <defs>
  <style type="text/css">
   <![CDATA[
    .fil1 {fill:#E54C46}
    .fil0 {fill:#EAE0D4}
    .fil2 {fill:#2B2A29;fill-rule:nonzero}
    .fil3 {fill:#2B2A29;fill-rule:nonzero}
   ]]>
  </style>
    <clipPath id="id0">
     <rect x="4713.94" y="8327.34" width="2000" height="1942.7"/>
    </clipPath>
     <clipPath id="id1">
      <rect x="4713.94" y="8327.34" width="2000" height="1942.69"/>
     </clipPath>
 </defs>
 <g id="Capa_x0020_1">
  <metadata id="CorelCorpID_0Corel-Layer"/>
  <g id="_2418256724640">
   <polygon class="fil0" points="7013.06,-11.57 7013.06,10527.18 -23.47,10527.18 -23.47,-11.57 "/>
   <g>
    <path class="fil1" d="M443.28 2433.4c-7.58,-48.5 -20.54,-96.21 -18.17,-173.6l-50.5 32.44c-7.63,4.75 -14.88,9.6 -22.22,14.12 -41.73,25.6 1.78,9.34 -55.11,29.99l146 97.05zm1887.63 2214.64c199.19,-123.79 328.94,-203.73 612.65,-232.38 243.16,-24.55 584.8,-40.92 798.15,36.99 -372.91,28.93 -1404.89,46.43 -1550.66,490.98l-4.93 36.63c-197.23,181.88 -47.84,782.52 -23.48,946.41l-12.11 110.7c-183.01,-253.7 -211,-567.91 -181.77,-926.97 92.26,-171.83 68.31,-178.7 197.68,-319.64 26.09,-27.44 123.48,-118.35 164.47,-142.72zm17.61 292.4c21.85,-18.94 26.08,-20.79 47.44,-43.67 107.86,-115.54 214.49,-223.61 397.67,-225.65 -75.98,77.33 -221.31,188.45 -255.65,235.51 -81,111.01 -102.77,240.35 -217.08,323.19l8.71 -219.55 18.91 -69.83zm124.87 526.05c-4.57,-127.08 59.57,-253.48 121.82,-353.83 28.08,-45.26 63.18,-88.99 96.98,-132.13 60.07,-76.71 58.67,-84.73 147.91,-127.47 6.56,-10.24 -4.31,-10.77 29.13,-33.14 34.09,-22.79 19.35,-11.47 63.89,-33.16 38.13,-68.2 391.91,-217.13 507.86,-241.32 368.62,-76.91 585.2,184.03 646.66,147.21 44.31,60.73 161.81,93.26 186.64,227.25 63.51,41.75 15.33,4.2 68.53,67.38l51.12 62.38 163.59 461.02c63.55,73.96 -13.27,64.77 18.27,154.8 0.05,0.15 186.92,204.44 -133.95,367.49 -104.82,53.26 -241.26,16.83 -360.46,-0.44l80.46 87.45c99.64,62.42 118.18,20.86 199.55,101.76 254.27,-29.61 135.81,-18.06 259.61,-120.15 93.91,-77.44 157.17,8.47 207.43,50.78 103.66,255.4 96.21,349.54 5.04,606.26 -132,371.72 -27.58,319.36 -30.41,634.78l-24.83 37.85c-10.2,139.53 -110.56,225.89 -195.31,288.33 -77.27,56.94 -238.41,143.79 -291.98,203.53l-1.09 -9.73c-354.3,90.9 -510.61,246.19 -953.69,141.31 -319.13,-75.56 -582.02,-236.46 -695.68,-466.02 -20.36,-7.83 -8.67,-4.31 -40.61,-35.49 -25.68,-25.07 -3.58,-9.8 -42.6,-44.58l10.17 4.72c-17.55,-125.73 -33.92,-118.84 13.23,-235.11 52.6,-129.66 28.37,-105.31 45.95,-238.54 -47.8,-46.12 -51.35,-65.1 -90.9,-120.27 -26.91,-37.54 -53.42,-69.05 -78.99,-101.48 -57.93,-73.48 -101.2,-138.61 -146.67,-211.51 -22.4,-166.72 -71.01,-573.53 163.6,-522.31 81,52.77 126.65,124.34 206.72,143.53 140.04,33.58 230.72,-36.87 331.02,-69.39 6.39,-9.07 83.65,-72.5 94.34,-79.1 71.88,-44.44 75.8,-24.17 159.19,-57.43 -168.28,-14.62 -381.44,117.22 -500.54,19.87l-166.95 -107.85c-93.61,-61.94 -64.02,-36.09 -125.93,-122.54 36.22,-102.02 13.94,-45.73 78.08,-128.66l-119.62 3.37c43.95,-87.61 -23.53,-89.02 43.42,-219.42zm1741.26 -840.22c81.84,-57.25 119.46,-59.42 232.2,-48.68 42.65,4.07 77.25,12.38 111.92,19.25l130.57 48.84 -511.26 33.15 36.57 -52.56zm499.07 -2.67c-58.05,-61.66 -79.95,-19.41 -228.05,-76.34 -4.75,-1.83 -13.32,-5.41 -19.51,-8.96 476.37,-21.63 824.94,-71.43 1290.11,33.77 142.72,84.12 114.19,22.27 223.23,199.99 46.56,269.78 -82.28,348.56 -97.61,589.97 -20.77,327.01 130.73,278.05 142.55,532.76 91.5,53.8 75.8,76.44 142.29,143.43 50.53,50.92 117.59,94.51 173.38,134.02 129.5,91.7 269.05,141.79 458.05,158.3l-5.14 -183.64c-191.92,-80.71 -461.31,-152.19 -579.82,-282.25 189.47,48.49 346.07,87.6 556.56,85.94l10 -12.12 -166.56 -1.15c32.91,-28.06 -0.41,-11.58 62.75,-40.84 16.44,-7.63 66.58,-23.7 88.6,-32.41l-3.1 -254.51 -19.98 -221.81 -196.31 -20.9c65.07,-47.83 46.49,-51.35 174.62,-79.28l3.84 -114.22c-84.27,24.27 -155.87,60.45 -241.65,86.94 -155.26,47.94 -135.52,13.97 -204.88,86.9 -80.06,8.87 -2.91,-26.36 -90.92,31.65 -40.91,26.97 -35.2,29.17 -53.5,60.35 -46.09,83.82 -43.65,83.34 -8.7,173.83 9.21,59.53 36.99,15.46 -7.64,38.75 -85.75,-76.55 -102.37,-129.85 -33.31,-258.38l35.82 -107.76c46.09,-24.44 101.14,-113.68 150.29,-153.79 59.16,-48.29 114.6,-85.61 180.74,-128.39 149.68,-96.82 161.28,-228.87 97.92,-307.17 -60.95,-75.33 -40.08,-43.3 -104.22,-49.14 -94.21,-114.87 -610.84,-212.23 -794.54,-240.54 -351.73,-54.2 -636.08,-1.23 -971.88,2.5 186.94,-111.8 855.6,-100.44 1121.6,-72.62 335.62,35.1 624.72,130.02 882.83,257.09l0.39 -47.36c-275.9,-164.85 -705.07,-259.95 -1087.19,-269.36 -498.86,-12.29 -749.8,43.12 -1187.27,135.08l90.88 -78.12c264.43,-162.94 696.49,-297.88 986.01,-196.06 676.95,238.09 616.24,89.58 913.88,149.09 104.94,20.97 180.51,57.5 279.09,75.02l-16.92 -233.05 9.45 -63.97c-152.41,94.15 -143.07,150.57 -422.29,172.25 -498.5,38.71 -656.18,-114.34 -966.16,-202.26 -112.64,-31.95 -422.88,-31.47 -461.24,-51.05 302.14,-196.79 665.49,76.99 958.07,148.18 459.16,111.71 840.31,-131.53 873.78,-313.7 1.75,-9.53 7.29,-11.53 11.42,-16.98l4.55 -91.22c-91.16,134.97 -52.18,205.12 -209.5,302.44 -98.77,61.09 -273.15,138.9 -387.06,97.43 489.52,-123.08 655.59,-875.16 287.69,-1144.25 -6.09,-5.73 -5.91,-16.99 -32.75,-29.44 107.33,34.09 172.37,106.23 335.46,114.26l5.16 -160.13 -420.12 -12.62c-342.93,-120.13 -711.53,-14.56 -797.66,226.51 -56.24,44.7 -49.23,29.34 -77.6,113.69 -49.56,147.34 -18.6,286.16 48.25,415.37 -12.5,6.7 23.1,37.6 -64.28,13.02 101.17,90.51 71.44,123.22 228.39,166.51 77.57,62.59 381.75,122.75 454.18,20.82 362.59,-139.68 357.28,-759.53 -107.72,-791.11 -409.87,-27.81 -539.87,747.24 146.11,480.31 -169.02,283.49 -719.9,119.82 -466.76,-333.56 46.63,-86.02 127.65,-152.05 248.27,-180.39 146.67,-34.46 255.89,22.88 362.99,36.29 72.94,120.65 142.97,150.73 150.65,364.08 4.87,134.89 -36.47,283.69 -101.01,372.22 -169.77,232.87 -512.98,174.21 -780.44,108.63 -65.77,-70.05 -271.09,-180.88 -388.91,-170.78 142.91,-253.09 61.4,-176.27 -15.49,-445.43 -41.92,-54.9 -57.41,-125.15 -21.78,-257.19 42.01,-81.64 75.18,-73.41 87,-135.59 149.53,-61.89 345.28,-159.96 547.05,-149.58l-185.74 73.21c-186.95,98.16 -323.8,214.46 -337.3,449.14l122.76 300.15c-7.96,-150.52 -156.41,-285.31 -67.07,-467.62 45.25,-92.33 220.42,-225.71 342.57,-274.58 269.51,-107.84 750.18,-35.34 1106.81,-152.56l0.69 -35.85c-76.07,10.65 -121.3,42.63 -201.15,58.28 -82.62,16.19 -172.88,22.07 -257.96,25.5 -178.13,7.2 -349.44,21.19 -523.61,24.33 58.86,-33.81 116.83,-31.16 287.41,-51.11 436.93,-51.11 552.38,-184.93 703.63,-260.71l14.26 -37.72c-68.98,34.32 -68.56,46.43 -150.35,88.23l79.04 -131.63c34.78,-92.37 -0.88,-38.18 59.25,-98.75l29.7 -425.57 -249.77 -443.28c185.32,69.63 163.77,76.6 276.44,189.24 -23.07,-67.27 -36.18,-83.18 -73.34,-139.84 -17.66,-26.92 -11.44,-26.2 -42.76,-58.59 -29.48,-30.49 -22.94,-17.43 -43.13,-30.01 -20.75,-99.71 -97.06,-174.55 -111.59,-301.21 -16.83,-146.79 58.78,-224.04 83.75,-330.26 -45.58,22.52 -8.84,-22.01 -45.84,37.6 -9.17,14.75 -20.86,49.61 -25.93,66.49 -62.48,75.42 -58.76,187.16 -38.75,283.26 26.2,125.79 47.82,200.74 138.36,244.12l-20.66 31.85 -110.95 -47.86c-295.69,-97.31 -203.93,-625.01 -51.47,-699.33 56.16,-116.89 219.99,-196.43 386.44,-252.87 19.68,-34.43 25.99,22.47 15.84,-61.64 -8.52,-70.53 9.36,-27.51 -29.27,-64.62l-240.41 -0.38c-166.61,187.78 -185.93,372.98 -455.88,464.13 -153.59,51.86 -266.07,16.26 -297.1,-105.89 -44.39,-174.7 104.95,-133.63 60.06,-363.19l-1389.85 0.04c-74.35,346.99 -423.8,463.34 -469.33,616.9l-141.42 129.32c-169.33,204.08 -154.4,296.67 -76.38,574.78 172.62,119.17 103.76,135.76 418.04,123.08 144.43,-5.82 389.08,-66.72 445.19,-48.41 -135.94,-3.43 -151.11,42.7 -264.71,76.34 -81.61,24.16 -186.5,45.64 -271.52,66.76 -242.31,60.21 -346.5,59.79 -533.79,-41.53 -43.27,-134.77 -80.64,-113.41 -61.11,-309.23 268.6,-673.69 800.59,-703.69 701.73,-1174.81l-20.44 80.98c-69.5,260.09 -289.03,267.5 -609.06,816.25 -3.8,6.53 -15.35,26.21 -18.67,31.63l-19.28 29.2c25.17,-251.59 41.92,-381.46 191.41,-565.08l37.31 -50.17c2.23,-10.28 8.53,-12.07 12.42,-18.32l10.4 -3.43c109.77,-57.78 109.34,-60.38 190.73,-137.21 74.12,-69.95 105.25,-75.57 127.97,-202.02l-119.31 2.54c-24.93,46.67 -8.56,22.4 -45.92,62.63l-172.86 110.44c-197.88,63.35 -760.89,84.53 -866.23,-173.76l-253.53 -3.66c33.34,139.69 221.23,228.97 390.57,277.99 31.99,40.85 14.61,12.51 58.29,44.8 58.34,43.1 34.76,7.57 47.14,50.31l49.52 -5.61c4.33,5.42 11.21,11.6 14.53,15.01 199.65,205.8 124.76,249.4 130.07,501.06 -75.47,62.94 -109.93,144.68 -184.05,207.53 -59.09,50.12 -136.71,104.82 -219.74,137.17 -4.22,-14.89 -13.39,-5.72 12.2,-54.55 86.62,-33.53 153.84,-177.34 179.73,-285.95 38.26,-160.55 7.58,-264.56 -35.24,-406.63l-33.04 -12.56c-18.82,-136.44 -251.47,-255.48 -461.75,-265.04l-145.63 -68.55c-1.08,-6.72 -1.96,-24.63 -2.99,-20.19 -0.94,4.03 -2.91,-15.46 -4.27,-18.08 -16.05,-31.18 -22.78,-30.14 -25.09,-32.04l-6.53 -64.99 -224.83 7c14.66,306.11 -62.31,363.46 -263.95,478.9 -142.06,81.33 -388.8,186.23 -449.82,305.56 -81.96,-39.35 -46.47,34.72 -78.56,-236.77 -68.59,74.86 -41.4,-32.68 -28.19,150.09 4.45,61.42 -10.35,111 -19.34,173.54 -61.36,89.71 -112.64,138.15 -207.43,200.07l-16.59 12.54c-23.19,3.22 -330.4,51.28 -276.07,-5.16 -102.87,-32.46 -183.16,-114.13 -198.3,-229.73 -17.83,-136.02 56.77,-210.71 95.51,-304.9l78.4 -44.95c30.2,-20.51 45.05,-30.62 80.36,-49.24 59.71,-31.49 114.34,-50.95 183.59,-74.29 68.62,-23.14 118.79,-39.43 188.73,-67.66 130.35,-52.63 103.4,-62.36 204.9,-79.29 63.25,-124.76 115.48,-87.26 166.59,-227.48l-20.41 -9.4c-35.79,74.34 -9.15,43.69 -73.82,105.45 -319.18,304.88 -634.24,202.2 -808.34,446.86 -66.48,31.4 0.12,-15.69 -50.79,33.22 -5.22,5.02 -17.95,24.4 -22.15,29.44 -24.28,29.22 2.87,12.11 -35.84,41.03 -46.52,220.45 -44.3,282.47 93.96,413.04 50.51,47.69 107.8,78.53 197.8,82.48 75.69,3.33 166.07,-10.8 219.85,-49.2 326.47,-14.7 792.93,-517.07 1028.81,-724.23 133.12,-116.91 203.73,-143.47 420.44,-173.07 -67.1,95.89 -176.93,41.18 -249.07,146.29 -117.73,45.47 -372.14,298.02 -504.29,409.19 -321.81,270.72 -776.28,711.6 -1177.69,420.13 -147.56,-107.15 -290.1,-424.06 -94.54,-593.54 3.44,-62.02 22.3,-88.68 41.59,-146.52 53.7,-30.43 107.91,-91.91 185.09,-133.81 82.17,-44.62 158.2,-57.44 254.74,-81.45 177.95,-44.28 361.42,-106.34 423.26,-226.72l-885.22 6.09c52.75,76.9 81.27,82.74 185.69,119.21l-134.65 85.5c-109.78,83.75 -226.39,210.21 -250.77,354.85l-36.06 0 -40.75 496.52c77.3,65.96 34.64,53.07 81.65,128.31 107.8,172.59 295.18,175.97 410.5,209.46 -201.71,30.07 -226.09,93.7 -510.69,81.97l-12.25 283.51c227.94,-19.81 372.32,-121.42 552.04,-193.36 298.83,-119.61 368.65,16.35 522.83,125.22 -5.62,103.85 -34.52,319.42 -31.65,385.72 -76.61,79.34 -280.41,448.94 153.06,489.36 107.76,119.03 214.81,146.97 258.08,341.07 40.31,180.82 -3.83,351.66 -72.63,473.38 -3.33,-161.51 72.33,-202.05 -15.36,-395.7 -60.89,-134.45 -90.73,-194.32 -220.84,-229.74 -66.95,-65.13 -201.59,-84.71 -278.88,-58.25 -298.39,70.81 -362.5,166.51 -510.36,331.24 40.14,-167.92 165.77,-275.17 168.31,-286.97 1.77,-8.24 8.32,-9.35 11.79,-14.51 107.4,-50.25 299.03,-301.69 347.09,-467.59l16.66 -6.01c23.59,-144.6 24.39,-240.22 38.59,-374.76 -34.43,-31.23 2.6,16.4 -41.44,-45.54 -11.8,-16.6 -27.08,-49.35 -28.12,-50.87 -35.81,-52.15 -17.98,-35.68 -59.26,-46.77l-13.21 -40.93c-345.46,-160.13 -672.5,218.68 -781.11,413.55l-38.09 18.2c21.92,103.15 13.2,38.47 -19.96,60.56l11.29 142.87c38.76,130.76 56.21,210.73 229.46,212.88 152.02,1.89 254.09,-67.5 333.06,-132.62l143.29 -106.66c-177.76,244.04 -418.88,253.41 -668.82,687.86 -44.31,77.03 -13.12,56.85 -80.08,105.64l2.72 586.16c78.08,73.38 64.07,128.97 156.57,230.91 59.53,65.59 23.88,35.58 102.61,69.4 -49.67,72.64 -56.74,55.31 -111.2,105.21 -30.77,28.2 -23.68,27.82 -49.45,52.69 -48.81,47.09 -18.59,21.25 -62.97,49.46l-9.67 243.8 69.04 87.09c42.04,-136.75 126.56,-221.28 257.99,-287.66 167.17,-84.44 275.77,-89.79 475.72,-43.47l52.59 30.08 2.55 103.23c-165.61,-64.54 -368.12,-107.82 -532.4,35.41 -41.8,36.45 -24.73,20.01 -40.77,48.27 -79.12,43.77 -32.37,0.01 -88.31,78.89 -22.14,31.22 -34.21,63.45 -47.41,100.14 -44.95,125.02 -39.42,171.87 -13.35,295.46 7.93,7.75 18.14,24.57 25.65,30.32 40.08,30.69 16.07,18.29 62.5,31.69 141.24,188.12 380.9,87.85 592.85,120.9 153.21,-131.37 374.77,-161.32 358.93,-430.17 -14.1,-38.97 -21.72,-65.75 -44,-103.51 -35.62,-60.39 -14.52,-33.38 -61.3,-75.46l9.98 0.66c-34.66,-112.45 -45.96,-148.63 1.98,-249.57 63.93,-47.01 121.36,-113.77 230.26,-153.61 88.74,-32.45 260.54,-65.51 305.51,-85.89 141.58,-41.21 163.65,-112.58 170.9,-262.01 8.5,-174.9 119.13,-150.1 166.7,-254.91 -116.66,67.28 -174.54,137.5 -281.57,199.65 -99.85,57.97 -233.85,106.03 -299.64,194.33 -116.76,6.52 -179.13,60.76 -300.49,78.58 -140.49,20.63 -225.06,-12.37 -337.22,-7.07 -132.22,-130.23 -235.34,-155.55 -239.75,-410.4 -7.26,-420.5 408.61,-642.79 697.18,-512.09 219.99,99.64 132.59,211.58 152.42,422.47 -70.21,86.99 -109.73,205.87 -292.41,198.79 -168.46,-6.51 -237.02,-120.94 -215.44,-282.19 54.31,-405.71 663.51,-118.02 371.35,15.48 -26.36,-38.39 11.65,-127 -87.28,-157.77 -112.31,-34.95 -170.82,55.44 -202.49,114.69 -41.09,-19.26 -19.5,44.11 -15.22,67.88 18.53,102.86 16.93,71.3 57.43,75.14 171.45,152.93 419.04,-67.15 328.04,-244.48 -102.66,-183.18 -421.49,-130.55 -559.47,16.89 -272.33,291.01 -86.13,914.88 681.09,403.88l537.93 -328.65 224.34 -71.32c609.65,-129.42 956.89,-78.85 1376.59,313.31l207.25 257.06c69.86,126.09 30.03,58.44 -4.26,90.86 -14.2,-73.6 -21.53,-84.47 -91.76,-115.31l-203.46 -194.1c-87.91,-54.75 -11.67,-21.1 -83.36,-34.06 -98.47,-141.64 -457.98,-217.1 -666.07,-242.68 -296.01,-36.39 -517.14,6.66 -717.65,123.35 45.8,-3.59 557.83,-216.35 936.2,-47.69 -253.93,-2.22 -401.65,-18.04 -656.15,48.45 -33.61,8.78 -71.98,19.6 -97.16,32.57l-80.57 60.98c-56.29,11.75 -0.73,-24.69 -75.12,38.86 -8.72,7.45 -48.22,54.07 -55.68,71.76 -35.88,85.04 2.6,117.04 56.51,170.48 7.33,173.98 -150.92,169.32 -321.92,252.01 -165.5,80.03 -229.76,120.74 -317,250.25l-62.2 136.52c-10.13,343.02 21.43,481.5 -194.07,663.84 -93.66,79.24 -176.22,107.09 -329.67,99.71l-347.96 -73.82c-151.02,10.92 -299.82,-31.6 -375.72,-137.11l-6.84 57.9c24.75,37.29 -2.66,127.12 -2.32,221.63 73.6,1.52 26.52,21.82 52.34,-15.7 384.33,-84.56 497.29,173.7 835.71,178.09 185.59,2.4 273.52,-77.15 336.45,-175.14 92.95,-144.76 91.95,-305.15 141.52,-373.24 -11.64,-166.15 86.06,-269.72 105.29,-414.2l186.85 -230.52c90.3,-35.89 11.53,-2.05 63.42,-30.84l367.54 -210.39c77.61,-10.04 98.5,-31.88 153.65,-64.21 30.27,-201.68 -104.34,-206.83 -11.15,-344.1 70.06,-49.02 93.59,-68.49 180.19,-70.89 -32.35,30.61 -106.98,107.32 -122.35,164.56 -26.58,98.88 -8.02,202.77 73.81,267.3 23.95,67.77 29.89,47.12 109.28,122.99 -110.47,32.86 -226.86,47.9 -337.81,80.4 -106.08,31.06 -213.31,93.09 -308.23,129.46 -17.04,39.48 -16.72,25.15 -61.1,63.65 -41.78,36.25 -45.08,37.79 -85.3,81.55 -160.71,209.29 -184,247.2 -285.46,558.97l-2.29 151.99c-104.95,162.49 52.38,244.94 -192.16,371.13 -240.43,20.69 -422.85,-81.38 -629.92,67.73l-98.06 -114.07c-29.18,-44.39 52.91,-14.23 -60.35,-51.9 -30.37,-10.1 -63.19,-7.03 -94.03,-2.44 -41.69,6.19 -106.98,33.67 -161.14,46.6l-130.43 39.97 -5.56 34.69c237.55,-13.75 176.98,-100.43 451.51,-66.92 41.83,112.63 36.44,129.2 -7.89,239.98 -69.13,75.13 -107.71,97.43 -159.82,183.04 -48.92,18.86 6.62,-26.33 -71.18,45.05 -27.45,25.18 -43.18,46.69 -58.67,68.86 -21.48,30.73 -60.96,103.84 -77.05,147.44 -56.59,153.38 -5.61,281.37 -26.61,441.13 28.13,20.62 12.45,4.46 38.6,40.1 22.7,30.93 17.37,32.77 38.03,63.67 52.31,78.2 37.87,60.17 132.13,89.57l45.15 13.65c111.69,159.63 733.95,310.94 953.69,185.13l227.03 -94.92c-39.95,47.38 -81.96,72.68 -96.83,126.94 -606.06,272.14 -841.2,123.99 -1331.42,-147.22l8.78 168.25c58.36,28.4 89.61,50.47 145.07,79.54 50.29,26.36 97.49,46.59 144.13,68.32l21 -7.31c-37.43,70.53 39.33,7.5 -67.4,75.62 -18.91,12.07 -47.67,20.92 -71.11,30.76 -61.59,25.83 -106.05,47.19 -172.37,71.67l-12.05 119.12 55.97 6.93 400.62 -176.23 70.23 -25.87c200.4,-58.9 165.63,-56.74 400.48,-71.23 -56.93,82.46 -179.65,150.67 -260.5,218.34 -298.62,176.38 -246.43,200.43 -670.57,165.94 -6.42,431.54 -47.97,830.92 -66.55,1272.28l202.67 5.67c-63.76,-167.37 -107.13,-110.29 -114.56,-380.44 -4.7,-170.72 9.5,-272.53 82.34,-408.62 67.17,-125.5 403.63,-374.31 541.89,-449.12 -78.6,119.66 -159.63,168.4 -243.01,258.44 -74.55,80.5 -130.94,174.06 -188.8,295.1 -58.16,121.64 -83.47,280.27 -30.32,410.41 46.3,113.36 172.55,172.48 240,258.23 96.8,12.18 252.09,21.07 377.66,7.38 95.6,-258 218.96,-398.44 579.95,-349.94 124.54,225 84.95,116.51 15.8,355.47l187.6 10.92 37.56 -106.96c211.07,-178.9 2.81,-559.78 -124.19,-684.07 -83.29,-81.49 -182.97,-153.09 -253.03,-234.13 -117.43,-135.83 -86.59,-219.98 -97.46,-411.2l275.81 -356.78c4.17,-4.83 10.39,-13.04 13.77,-17.08 3.46,-4.13 9.64,-11.43 13.79,-17.59 339.83,-128.82 417.89,-404.53 484.6,-509.76 48.87,292.17 -99.75,473.06 -325.2,613.14 -117.52,90.28 -303.03,236.58 -304.81,459.79 -1.69,212.33 182.83,341.25 382.76,382.87 25.93,19.81 128.6,59.41 188.45,135.24 85.76,81.09 131.44,306.47 67.39,433.06 -56.04,250.56 -91.86,196.81 -280.94,302.57l218.82 -0.06c103.58,-73.36 288.36,-99.35 419.2,-156.19 112.54,-48.9 181.82,-257.28 178.41,-370.55 92.73,-94.6 152.37,-384.67 216.39,-509.63 193.62,15.29 337.68,115.23 574.25,108.69 191.84,-5.29 362.77,-98.15 577.06,-123.23l125.34 831.25 210.4 67.88c28.67,30.46 49.14,29.6 98.17,51.3 19.2,8.5 55.61,24.08 71.67,33.86 73.2,44.66 24.14,8.71 64.24,50.04 186.75,8.96 417.08,9.41 621.9,18.8 58.83,-57.94 111.33,-72.09 178.15,-139.33 60.75,-61.13 101.23,-95.68 103.08,-190.86l42.05 -70.97c0.96,-2.41 16.19,-60.89 16.22,-61.04 8.3,-47.01 8.55,-95.63 5.7,-143.08 -17.68,-294.24 -141.36,-453.87 -496.74,-398.03 -154.6,27.75 -326.78,163.63 -483.42,110.59 35.03,-64.83 23.69,-66.03 81.33,-123.1 46.51,-46.04 52.58,-35.33 88.14,-114.22 84.43,-38.1 91.18,-97.98 146,-193.2l59.48 121.06c-60.16,63.48 -97.41,63.67 -95.74,163.05 208.27,47.49 113.69,-83.06 290.28,-49.41 163.15,31.11 162.32,48.53 358.91,34.68 102.89,270.85 178.8,245.28 128.36,632.88l-40.2 141.39 -120.72 145.54c-53.64,67.46 -62.83,65.07 -95.35,133.18 304.26,-16.69 523.66,-48.15 827.32,-19.75l111.02 27.51c-11.43,-91.56 -10.83,-106.91 -109.61,-125.6l-113.05 -33.86c-192.54,-69.36 -278.91,-159.64 -366.43,-321.99 -22.57,-198.98 -45.83,-424.07 78.59,-568.16 37.2,-43.09 127.93,-122.79 174,-157.56 48.86,-36.86 147.27,-88.91 193.37,-144.3 85.41,-9.48 199.17,-62.81 316.06,-80.63l125.31 -18.6 5.64 -57.24 -150.12 -29.88c-95.26,-74.98 -84.9,-120.82 -101.04,-264.63 107,-189.29 75.18,-216.08 259.38,-311.84l-0.86 -145.78c-76.89,1.95 -120.36,7.23 -189.23,39.67 -26.12,12.31 -53.45,23.01 -79.29,49.25 -40.3,40.92 -18.68,11.35 -31.35,65.35l-69.06 -11.15 -2.66 -99.1c90.32,-40.44 250.52,-66.4 364.04,-102.02l3.18 -84.11c-215.1,-33.44 -378.39,155.56 -541.77,-30.39 164.7,43.75 352.03,40.88 495.13,-56.51l22.68 -175.65 -0.73 19.19c-136.12,-5.92 -397.33,-22.23 -512.22,-99.68l-110.52 -111.3c117.74,263.09 272.74,127.64 464.99,241.73 -162.93,96.01 -480.02,35.29 -623.02,-53.94 23.61,-80.99 23.04,-47.18 88.35,-111.37 175.38,-172.39 13.59,-288.34 -82.19,-422.16 -392.79,-176.36 -162.66,-742.53 -228.92,-927.31 -25.85,-72.05 -33.26,-62.8 -68.18,-92.06 -53.93,-106.19 -227.14,-231.12 -400.75,-214.25 -25.85,-15.16 11.09,-4.94 -62.05,-27.34 -98.58,-30.19 -438.15,-14.67 -544.56,-15.07zm1234.82 -26.45c40.31,-51.76 -55.47,-39.35 79.13,-30.09 5.19,0.35 69.73,24.85 75.63,27.52 68.58,30.93 90.98,48.8 151.83,74.1 31.92,113.71 39.98,163.26 -38.93,257.27 -35.8,42.64 -13.41,17.6 -42.16,41.99l-40.77 23.02c21.81,-92.76 83.5,-221.63 -70.43,-353.72 -67.42,-57.86 -52.11,-33.42 -114.3,-40.09zm-1754.51 -166.8c-36.35,53.39 14.11,8.02 -65.61,46.01 13.2,-208.46 18.89,-221.17 -17.2,-422.27 -21.3,-118.67 -9.01,-240.18 -25.87,-370.83 -3.25,-376.65 222.93,-677.75 606.38,-711.9 232.68,-20.72 288.68,109.65 351.85,290.38 48.43,138.58 141.2,237.72 85.97,347.4 -25.19,50.02 4.02,-0.37 -34.38,45.46l-43.07 46.2c-3.55,3.85 -10.44,10.39 -14.86,16.19 -79.21,2.97 -304.06,119.9 -371.52,176.41 -84.35,70.65 -191.85,218.51 -205.45,343.27 -23.97,-23.75 -45.05,-2.76 -10.53,-121.99 156.56,-540.64 339.66,-426.01 475.64,-548.02 39.4,-35.35 10.39,-0.92 27.76,-42.19l60.59 -38.13c17.07,-168.62 -63.12,-255.19 -149.12,-329.9 -102.4,-88.94 -265.62,-70.36 -347.59,-27.54 -36.14,18.88 -26.07,17.94 -47.32,37.56 -209.73,18.78 -340.62,281.89 -342.96,541.3 -1.64,182.24 9.21,225.66 66.22,372.04 54.43,139.75 85.09,201.63 1.07,350.55zm-648.39 -220.85c-108.49,-9.04 -204.96,10.44 -307.31,13.3 -115.17,3.22 -188.17,-28.52 -277.9,-29.91l-32.47 -25.63c-140.24,-86.29 53,28.33 -34.87,-20.54 -264.83,-147.33 -128.77,-349.21 181.11,-323.62 -55.41,148.66 -104.46,52.5 -138.23,235.78 123.64,172.42 421.91,127.95 694.12,131.08l-84.45 19.54zm377.91 1451.5c-134.27,257.44 280.55,88.26 359.01,-0.54 -91.07,-58.19 -250.13,-40.35 -359.01,0.54zm-1146.98 0c58.54,62.86 323.25,128.27 341.83,129.93l108.56 -27.07c35.11,-178.11 -330.19,-163.05 -450.39,-102.86zm3619 -166.62c59.19,-7.85 132.3,-22.34 191.64,-7.38 47.97,12.1 25.34,-13.92 54.03,27.36 77.12,111 6.81,27.87 -29.06,48.4 -10.63,-15.3 50.69,-17.55 -59.59,-38.83 -43.99,-8.49 -78.23,1.57 -123.17,6.64l-33.85 -36.19zm-1878.15 -691.49l-84.25 38.58c-85.13,26.77 -43.22,14.17 -118.72,6.32 14.39,-79.34 -9.23,2.57 25.39,-46.52l131.56 -77.07c7.02,-0.08 16.79,0.98 22.38,1.09l23.64 77.6 252.06 42.18c25.71,15.85 237.26,102.68 299.56,142.38 99.51,63.41 173.38,180.35 240.76,232.74 138.21,265.26 330.33,585.42 278.89,962.51 -46.93,344.03 -337.58,555.73 -347.6,916.15 -47.64,56.03 -35.04,118.19 -52.01,202.29 -114.29,-431.82 121.24,-558.65 195.19,-964.11 273.17,-567.32 -151.89,-1197.86 -530.5,-1359.42l-153.72 -83.08c-83.28,-33.38 -110.56,-40.75 -182.63,-91.64zm-96.96 232.4l-11.46 -36.37 388.21 119.51c161.83,53.73 217.02,56.95 298.2,169.5 69.51,96.37 101.57,247.48 66.89,384.23 -63.17,249.12 -251.54,386.79 -101.58,680.57 134.84,134.17 128.93,19.59 242.22,84.3 -35.26,81.21 -115.09,113.34 -230.24,115.54 -423.2,-402.72 294.6,-1206.35 -443.42,-1381.58 -151.64,-86.42 -156.11,43.75 -208.82,-135.7zm425.28 918.99c-10.9,-94.19 -42.48,-309.34 -81.45,-398.88 -87.5,-200.99 -190.27,-110.86 -215.66,-269.9 32.68,-23.08 -31.79,-29.07 98,-29.94l79.75 62.48c225.67,153.98 193,389.03 119.36,636.24zm395.65 157.32c65.38,55.38 68.47,16.81 88.76,100.21 -150.87,84.03 -299.75,59.58 -197.31,-141.18 70.75,-138.65 104.75,-200.8 169.37,-353.15 86.17,207.74 -57.37,215.07 -60.82,394.12zm249.62 -912.5c-64.51,-280.22 -216.76,-279.94 -339.89,-364.29 -51.86,-35.53 -35.95,-28.19 -58.41,-52.18 303.28,31.48 436.74,155.29 554.64,373.56 -1.95,114.9 -24.9,240.85 -84.59,314.1l-71.75 -271.19zm-446.12 1893.76c9.67,-99.91 29.26,-142.82 53.32,-229.76 24.2,-87.46 24.43,-174.67 38.01,-256.45l125.55 -54.02 -216.88 540.23zm-170.71 259.03c1.03,-108.89 -16.56,-233.31 -12.78,-338.8 4.65,-129.92 72.24,-196.16 70.67,-351.76l26.66 -70.08 33.3 83.29c14.68,234.69 -8.14,506.62 -113.8,677.64l-4.05 -0.29zm85.82 336.17c0.11,-10.34 -0.05,-20.95 -0.4,-31.74l0.4 31.74zm-7.16 -131.25c-5.91,-69.07 -11.89,-136.21 -2.39,-182.3 12.73,-61.75 73.39,-240.09 94.44,-281.65l23.8 46.07c81.94,-40 -47.98,-38.66 33.44,-0.97 9.8,109.48 25.45,250.05 76.49,331.89 0.07,65.03 8.72,121.96 52.25,168.9 56.72,149.26 34.17,151.44 224.47,160.53 -8.63,-315.88 10.14,-690.91 128.26,-796.43 11.55,66.04 15.28,130.91 36.35,189.62 30.27,84.31 27.8,85.66 81.65,95.81 87.42,157.18 163.97,126.1 315.59,200.14 -137.05,119.28 -301.87,48.93 -422.55,6.7 -24.5,-53.92 -79.61,-90.63 -118.31,-145.63 -49,-69.66 -55.84,-127.81 -100.41,-184.3l34.38 -211.85c113.28,-522.68 759.86,-500.19 966.67,-90.87l75.95 122.47c9.96,265.63 11.8,319.67 -86.04,539.86l-98 176.38c-87.14,61.95 -148.18,179.31 -295.63,226.09 -196.85,62.45 -114.24,-46 -225.68,-114.3 31.03,102.4 -109.48,86.95 -32.2,132.02l-105.89 5.48c68.9,98.13 270.61,25.47 367.48,23.98l-147.63 224.63c-66.25,-72.53 -44.94,-110.62 -129.15,-157.94 -20.83,-15.58 0.2,-16.38 -55.73,-26.95 -78.39,-14.83 -129.65,17.01 -267.86,-40.98 -344.88,-144.71 -354.99,-455.95 -324.52,-792.92 -68.71,89.69 -70.6,295.41 -51.49,398.75 49.65,268.39 27.67,195.97 -59.33,385.92 -89.35,44.47 -218.14,144.8 -195.79,287.69 156.54,40.49 271,-58.26 467.18,-59.13 340.09,96.63 306.35,319.32 224.54,637.51 -85.32,36.84 -119.07,111.78 -239.48,180.39 -184.12,104.9 -153.33,72.43 -330.54,-5.2 183.63,-102.71 503.89,-111.44 476.48,-466.85 -6.17,-80 -35.87,-148.89 -111.32,-187.12 -22.68,-28.26 -14.73,-26.38 -40.9,-49.95 -137.36,-123.71 -425.4,18.31 -509.16,187.32 -41.31,-0.57 -13.49,-8.24 -11.95,34.45 -60.94,62.41 -34.47,154.28 -53.58,104.35 -1.48,-3.83 -4.44,13.75 -7.86,20.12 -96.34,-495.21 223.28,-587.86 351.13,-960.48l-7.16 -131.25zm-2191.34 -4387.85c75.48,76.18 134.29,43.06 228.64,81.68l-640.37 18.61 -140.96 -52.23c-24.01,-47.35 1.28,-15.69 -41.52,-75.92 -61.89,-87.07 -9.2,-22.13 -49.27,-48.6 -16.62,100.17 20.74,69.99 -8.61,176.34l-105.66 -25.11c1.43,79.35 -28.54,41.75 44.53,111.5l66.44 44.22c2.93,-5.08 12.34,7.56 18.11,11.87 -180.26,91.53 -230.15,173.63 -341.69,223.08 14.93,-64.03 245.49,-603.83 -177.15,-793.07 165.34,12.21 288.89,114.43 334.1,264.1 22.85,75.67 13.76,102.89 55.66,138.3l2.85 -172.91 111.42 21.68c-9.05,-157.95 -76.98,-107.42 -186.61,-175.22 -34.97,-21.63 -153.23,-143.06 -177.79,-179.9 -107.02,-160.58 -63.43,-419.12 -40.36,-618.42l-16.76 -19.16c4.83,-6.92 17.23,-24.35 20.54,-28.81l40.55 -53.69c36.9,132.82 101.19,199.36 195.72,255.76 -28.49,129.4 13.5,10.64 -52.73,119.38 -18.87,30.98 -44.27,60.98 -55.69,98.95 -36.52,121.62 8.56,164.07 60.1,232.07 94.96,74.08 169.28,78.66 314.8,115.78 185.63,47.34 208.65,106.16 299.51,143.35 52.09,100.06 103.93,171.85 242.2,186.37zm1258.1 381.93c-144.95,-62.72 -187.65,-67.89 -172.7,-267.91l35.56 -111.88c80.31,-39.12 142.17,-133.58 206.7,-202.31 173.11,-172.83 110.49,-438.31 -111.26,-512.22 -120.79,-40.25 -265.5,-33.39 -388.55,3.04 -125.23,37.09 -199.52,97.24 -243.23,188.57 -66.25,98.85 -93.32,208.62 1.18,312.27 80.79,88.62 151.11,76.91 212.88,93.49 8.77,2.35 16.11,4.19 24.12,6.66 8.24,2.54 17.25,6.9 23.97,9.23 6.93,2.4 18.75,18.07 23.75,11.48 5.1,-6.73 16.39,7.58 23.73,12.65 -243.1,-23.9 -259,-19.3 -454.28,-110.3 -120.58,-162.85 -128.83,-298.3 14.65,-455.02 102.43,-111.89 296.83,-163.51 473.9,-198.83 251.42,-17.5 490.46,16.16 577.97,197.57 78.74,163.22 -21.14,450.56 -113.61,555.34 64.22,51.5 72.76,-68.53 35.57,68.04 -22.14,81.35 14.24,17.7 -49.61,43.5l-96.8 200.11c-2.79,8.16 -9.6,33.23 -13.04,41.17 -18.53,42.8 -19.91,38.42 -36.12,60.74l-2.52 -206.31c-64.01,70.1 -21.27,167.84 27.74,260.92zm-459.11 -306.05c24.08,36.33 10.01,16.93 38.94,48.62l313.22 413.14c-304.29,-103.82 -303.69,-382.79 -912.13,-512.58 80.48,-67.36 183.9,-62.03 293.82,-36.9 89.24,20.39 178.29,69.32 264.96,96.42l1.19 -8.7zm-343.55 -236.97c-28.56,32.49 0.52,19.68 -79.03,31.87 -27.94,4.28 -73.5,-0.8 -100.16,-1.89 -180.15,-31.8 -247.28,-58.34 -363.46,-137.23l-8.88 -190.37c-86.06,-66.5 -154.21,-62.08 -214.25,-152.54 -23.25,-112.32 73,-119.69 177.71,-146.93 -41.72,340.27 106.69,216.02 205.22,366.89 82.21,125.89 20.63,216.65 382.85,230.2zm1141.3 1251.15c-16.36,10.81 -23.32,20.53 -30.54,25.16 -9.79,-246.26 -90.28,-551.22 8.96,-778.75l95.22 -150.08c1.02,-6.35 5.34,-8.18 7.15,-12.66 69.26,-45.68 110.95,-59.89 156.33,-110.97 165.78,-16.85 14.18,-11.35 80.92,41.23 -133.72,36.63 -14.87,70.51 -140.94,194.67 -66.87,65.85 -82.45,79.43 -123.3,180.42 -66.32,163.95 -45.01,423.83 -53.8,610.98zm1258.87 1415.74c90.52,92.15 267.05,318.6 258.01,433.06 -15.93,201.83 -182.92,280.7 -272.1,395.02 40.56,-136.57 121.57,-186.08 110.75,-391.83 -9.06,-172.24 -94.76,-268.87 -96.66,-436.25zm475.63 1704.09l0.75 1.45 0.96 1.79 0.44 0.82 1.18 2.1 0.51 0.87 1.25 2.13 0.47 0.76 1.23 2.01 0.91 1.4 1.15 1.76 0.12 0.18 1.71 2.53 0.1 0.13 1.41 1.98 0.77 1.09 0.27 0.37 2.16 2.89 0.16 0.21c2.46,3.21 5.13,6.49 8.04,9.88 5.85,-5.66 11.29,-11.46 16.4,-17.35l0.04 -0.04c5.86,-6.74 11.24,-13.62 16.17,-20.63l0.06 -0.1c31.36,-44.61 44.88,-94.57 47.91,-146.65l0 -0.02c0.17,-2.73 0.29,-5.44 0.4,-8.19l0 -0.07c0.2,-5.48 0.29,-10.98 0.29,-16.51l0 -0.08c-0.02,-8.26 -0.27,-16.56 -0.71,-24.87l-0.03 -0.38c-13.69,-251.48 -72.97,-166.66 -35.46,-416.25 -100.82,-273.24 -412.58,-193.95 -509.02,120.49l85.87 -16.81c-1.21,29.04 -6.48,64.39 -11.55,100.33 -15.59,110.46 -29.26,226.67 82.9,184.03 -30.13,-49.36 -53.83,-93.33 -50.03,-147.07 1.73,-24.42 9.13,-50.84 24.19,-80.72 72.22,-143.28 163.94,-109.84 206.28,-107.84 -58.26,87.91 -88.14,37.81 -101.94,127.21 -12.19,79.04 29.82,73.51 4.46,198.08 1.44,6.43 2.58,11.98 3.5,16.69 5.19,26.39 3.75,26.82 9.88,11.11 53.19,-136.48 154.68,147.45 186.8,211.29zm-543.85 263.21c-11.7,-47.92 38.57,132.4 22.77,76.59 287.01,81.43 513.33,-22.36 640.33,-198.57l54.74 -181.73 15.11 -375.54 -67.32 -64.4 20 461.96 -341.94 294.02 -343.69 -12.33zm343.67 -502.3c-32.51,26.32 1.43,45.25 -82.96,10.34l82.96 -10.34zm-3681.03 -6041.55l42.43 6.88 -42.43 -6.88zm431.98 -18.15l51.83 -26.19 -7.56 138.5 -44.27 -112.31zm135.11 188.01c57.77,-12.21 -2.99,6.56 48.58,-15.24 0.01,0 32.73,-17 44.08,-22.08l-52.89 157.13c-137.11,67.9 -142.52,132 -372.33,176.41 -411.59,79.56 -510.74,-212.4 -309.42,-397.49l74.89 -68.59 567.09 169.86zm-167.42 -364.99c3.64,-18.69 -116.86,58.49 -117.79,34.98l-0.12 -3.17c141.7,53.75 -48.66,-35.36 0.12,3.17 7.71,6.09 21.34,15.34 43.24,28.86 135.56,83.75 189.5,-20.01 286.26,121.85 2.82,4.13 5.85,11.27 8.65,15.4 43.86,64.9 83.53,85.64 153.88,108.42l78.94 -186.41c16,-136.24 97.88,-26.02 9.52,-208.98l-97.34 241.68 -365.36 -155.8zm-15.32 727.59c43.23,-57.71 143.2,-153.61 207.4,-78.2 121.17,142.31 -170.38,82.48 -207.4,78.2zm-773.3 4279.16c142.81,267.91 351.22,527.58 292.23,905.53 -43.37,55.05 -70.63,126.1 -168.33,178.04 -97.01,51.58 -199.66,58.6 -317.63,64.58 -104.22,4.14 -117.62,14.62 -175.93,-53.58 250.47,7.3 529.63,-243.95 525.43,-492.29 -2.69,-159.68 -101.62,-251.21 -175.82,-342.65l-211.24 -273.6c38.65,-88.61 77.24,-97.04 153.77,-185.13 38.36,31.1 55.41,93.52 67.47,150.17l10.05 48.93zm-1217.4 -1732.29l-80.19 -51.73c-141.45,-285.65 -218.58,-438.2 -24.94,-849.17 96.74,-205.34 368.61,-454.55 532.33,-590.85 -61.89,142.65 -125.88,158.22 -214.3,269.48 -152.18,90.1 -272.98,371.09 -283.77,603.76 -12.93,279 133.04,479.02 253.91,616.72l-183.04 1.79zm55.7 1957.15c59.19,-47.89 112.91,-97.77 169.9,-140.63 102.89,-34.74 172.93,-53.69 290.92,-21.34l227.76 122.43c29.41,63.8 77.66,112.68 81.99,184.57 -43.96,-86.37 -114.93,-116.16 -190.75,-186.22l-107.58 -18.86c-26.31,-35.79 -188.92,-14.69 -252.9,20.87 -82.59,45.91 -125.04,98.82 -172.58,175.34 -12.56,6.52 -7.87,-7.19 -25.62,34.75 -1.55,3.67 -1.98,26.67 -3.02,22.24 -1.17,-5 -1.44,16.9 -1.27,25.35 -38.61,-44.87 -37.29,56.77 -37.52,-109.91 -0.01,-11.01 17.48,-88.68 20.67,-108.59zm1152.12 -271.54c3.47,16.38 6.53,32.24 9.58,46.68l-9.58 -46.68zm-934.3 849.12c-14.75,-118.47 -29.15,-209.81 26.16,-318.47 60.04,-117.99 68.07,-76.74 149.99,-160.28 125.37,-11.02 154.13,-23.25 229.79,52.43 62.64,34.93 114.61,66.31 122.11,164.53 130.24,418.14 -468.46,354.84 -350.11,16.13 39.02,-111.63 244.57,-109.3 221.85,60.34 -109.77,12.88 -142.6,-68.85 -167.36,15.46 -27.9,94.99 51.14,127.87 130.54,150.41l101.98 -75.45c8.23,-81.93 -15.29,-140.62 -33.74,-195.49 -269.71,-158.8 -372.05,80.39 -376.25,190.39 -16.88,442.63 835.42,434.53 579.63,-416.77 -88.67,-295.09 -29.2,-241.22 10.93,-251.41 -16.91,43.1 -14.63,-27.91 -7.34,48.63 10.66,112.07 11.89,40.01 17.4,43.9 99.44,303.3 396.8,452.36 74.33,781.18 -146.68,149.57 -443.76,233.31 -583.73,124.89l-134.61 -159.22 -11.57 -71.2zm-537.05 -496.14c126.88,-61.17 381.99,-264.39 385.63,-404.93 -26.13,-25.95 -36.33,-36.96 -63.92,-63.98 -159.24,7.76 -151.46,92.23 -325.8,128.2l4.09 340.71zm553.7 -1443c-3.18,1.53 -47.2,11.01 -66.21,50.26 -48.35,99.76 9.87,70.78 21.09,73.42 36.86,63.31 -37.79,5.47 36.8,62.49l-157.79 -13.23c-42.75,-144.69 68.79,-200.31 100.51,-205.31 99.11,-15.65 43.27,-14.83 65.6,32.37zm133.41 310.13c83.27,-29.38 64.09,-15.43 122.41,-63.18 -28.85,124.32 -154.69,249.47 -337.46,196.41 -131.68,-38.23 -236.66,-189.34 -276.44,-306.68 22.22,-47.68 -1.02,-13.5 62.12,58.41 39.62,45.11 62.46,60.73 119.22,88.68 75.3,37.07 228.24,92.2 310.15,26.36zm103.9 3714.89c71.57,90.8 22.59,126.15 -4.88,211.16 -158.79,-46.7 -79.1,-52.47 -204,-132.58 -58.84,-41.91 -106.17,-99.26 -139.63,-163.53 -41.93,-148.61 -76.01,-230.67 -21.49,-378.64l63.69 143.16c33.45,76.89 71.3,122.81 133.98,176.84 31.95,27.56 58.23,36.3 92.58,62.31 37.8,28.63 53.87,53.59 79.75,81.28zm-264.42 -307.93c-32.03,-121.82 -66.73,-169.54 -39.85,-323.6 76.68,192.14 -1.79,241.91 175.82,370.32 176.98,127.96 259.35,95.82 496.59,100.26l-143.07 68.67c-57.5,32.65 -90.7,69.05 -119.02,110.38 -40.69,-21.73 -8.83,1.12 -57.18,-34.18 -100.87,-137.57 -199.61,-157.05 -313.29,-291.85zm5957.19 -972.75l5.01 -291.17c-1.72,0.98 -78.37,-8.41 -101.19,148.39 -4.21,28.89 -9.64,70.4 5.03,97.95 44.51,83.55 -11.66,36.65 91.15,44.83zm-2429.89 496.77c78.01,-20.71 50.87,-27.96 63.93,-73.81 161.44,-61.59 270.3,-262.48 374.45,-328.08 -6.27,172.75 -185.6,288.43 -256.69,522.4 -64.93,213.73 -26.98,490.07 -42.99,720.13l-17.96 -5.23c-91.76,-80.29 -141.36,-226.34 -178.46,-359.88 -56.83,-204.51 -8.39,-305.39 57.72,-475.53zm-1940.41 -518.12c-44.7,51.27 -56.57,64.65 -126.62,114.15 -44.05,31.14 -29.93,18.16 -73.24,55.6 -51.43,44.46 16.52,-0.15 -43.98,38.33 -73,65.96 -79.74,79.15 -142.14,159.53 -122.14,-92.7 -13.61,-250.59 30.96,-337.25 93.4,-33.01 288.33,-255.35 371.36,-318.25 43.58,125.48 54.45,159.75 -16.34,287.89zm-88.38 329.8c76.49,-64.04 32.08,-6.81 44.82,-62.61 79.81,-41.95 97.39,-75.73 178.7,-105.19l27.75 102.23c-126.97,141.32 -16.44,485.38 30.56,651.51 152.55,539.03 -13.73,501.58 -173.93,530.43l32.19 -101.31c44.32,-345.25 47.76,-386.07 -104.04,-632.42 -57.64,-70.27 -77.92,-68.6 -153.34,-110.34 9.49,-121.86 58.61,-193.86 117.29,-272.3zm954.61 -1026.43l102.02 26.36c5.42,1.56 14.87,4.84 19.17,6.15l33.25 15.53 188.12 -17.08c114.22,-20.02 173.3,4.46 253.94,-53.32 -27.57,-300.31 -204.32,-128.61 -329.51,-141.19 -110.34,-11.09 -86.27,-67.27 -233.34,-64.4 -43.78,67.54 -83.8,117.71 -33.65,227.95zm3275.25 1595.31c16.64,-80.17 139.93,-293.66 199.22,-362.86l10.63 -126.03c-216.86,83.3 -394.75,424.05 -209.85,488.89zm-1770.81 256.53c104.27,-42.23 15.48,21.63 61.64,-39.43 67.25,-88.97 -13.47,-188.49 129.66,-122.15l6.2 125.03c-91.25,64.58 -8.89,85.95 -165.14,100.7l-32.36 -64.15zm-3585.99 444.5l139.16 7.07c-3.07,-120.97 35.21,-250 170.87,-187.59 -19.93,79 10.28,45.25 -92.41,82.94l7.28 66.19c46.52,27.08 104.28,28.86 157.76,7.44l73.07 -205.45 -57.39 -77.45c-252.4,-29.57 -407.34,96.86 -398.34,306.85zm5146.47 -385.64l54.21 -119.74c-81.75,-54.85 -119.3,-116.86 -135.41,-232.8 -14.87,-106.95 4.65,-200.67 55.87,-283.79 83.97,-136.29 256.64,-234.12 429.65,-301.39l9.43 16.22c-14.59,-33.51 23.11,-86.22 -153.11,-16.98 -56.78,22.31 -100.5,45.13 -151.58,79.97 -89.63,61.12 -156.07,131.89 -219.13,238.65 -114.5,193.81 -143.24,563.81 110.07,619.86zm-3256.87 -1370.36c-36.1,91.88 -19.62,24.61 12.57,54.26l97.39 -0.24 33.77 -26.24c238.4,-138.94 765.12,39.85 867.25,4.26l-0.64 -71.01c-68.83,-3.49 -85.84,0.28 -136.91,-67.21 -168.72,-55.48 -295.35,-78.89 -494.03,-66.76 -152.97,9.33 -254.9,129.13 -379.4,172.94zm63.84 162.84c-5.17,96.09 -1.83,82.81 40.47,146.7 207.71,-15.76 801.98,158.93 825.53,-138.96 -234.07,-71 -258.99,19.07 -447.38,12.59 -176.16,-6.05 -268.65,-98.39 -418.62,-20.33zm-1133.07 681.11c-422.83,-71.98 -460.13,-499.44 -146.1,-690.53 -71.57,233.48 -200.88,492.7 79.77,620.6 11.49,31.91 -12.55,-3 20.56,34.06 27.74,31.04 2.09,3.46 45.77,35.87zm-926.83 -413.95c119.78,-161.09 173.77,-306.82 445.16,-357.35 -52.21,99.93 -87.92,91.43 -140.75,174.01l-123.2 152.28c-295.84,495.83 354.57,632.22 456.28,714.81 134.31,109.08 107.6,194.05 151.75,377.59 -154.07,-22.9 14.98,-165.35 -252.17,-256.19 -148.37,-50.44 -263.57,-55.49 -393.77,-122.42 -355.2,-182.59 -174.55,-563.02 -143.3,-682.73zm1733.34 617.82c-89.76,-155.56 -136.27,-337.89 -115.45,-552.58 199.93,137.63 165.26,310.82 115.45,552.58zm-2385.97 -175.91c-4.26,-4.44 -8.14,-12.01 -9.83,-15.48 -1.69,-3.44 -6.96,-11.54 -8.92,-15.89l-33.56 -291.54c60.83,-11.86 122.91,4.99 197.89,19.29 121,23.08 79.75,78.39 75.57,107.41l-104.32 29.25c-36.02,-38.48 -66,-81.52 -76.31,-112.72 -8.61,165.38 43.45,87.78 -21.21,225.87 -35.12,75.03 -10.16,-3.56 -19.31,53.81zm3955.73 -5521.23l20.52 -13.7 643.89 -343.28c105.19,-100.1 247.91,-272.14 271.95,-435.51 34.39,-233.73 -26.01,-158.89 65.03,-207.28l101.83 3.77c-29.8,86.59 -55.88,85.24 -88.06,173.39 -61.98,169.83 48.72,338.86 -275.2,563.89 -187.02,129.94 -508.38,158.42 -757.5,375.23l-35.07 -17.83 52.61 -98.68zm-66.31 -83.68l-9.32 -12.29 -36.91 -12.61c61.88,-86.85 74.51,-77.89 135.95,-144 143.27,-104.02 302.18,-153.57 440.14,-271.59 52.72,-45.1 137,-111.26 138.8,-211.29 2.04,-113.57 -65.1,-190.35 -170.81,-191.02l-107.02 -38.38c-44.79,-4.76 -112.96,3.73 -158.75,8.65 -98.84,10.63 -159.26,29.3 -236.9,1.12l197.06 -67.78c7.43,-3.32 29.49,-14.76 35.65,-18.1l33.35 -21.8c212.28,-12.43 195.55,-50.06 415.09,22.13l51.88 41.39c70.34,263.63 45.43,215.51 -23.16,441.41 4.56,-3.48 11.67,-7.63 14.04,-9.94 2.37,-2.32 10.59,-7.75 13.35,-10.83 62.55,-70.05 34.54,-118.58 96.84,-209.2 -0.72,152.67 -33.32,249.01 -156.81,306.23l-50.75 45.48c-58.96,49.42 -3.75,-8.67 -49.61,40.99 -59.58,-67.5 1.56,77.32 3.81,-28.93 1.08,-51.23 33.54,18.13 -3.81,-29.74 -124.6,139.39 -431.73,190.41 -572.11,370.1zm739.81 -1648.24c-104.71,46.77 -136.5,45.5 -257.01,7.15l-43.22 -198.66c-17.45,236.36 104.7,342.47 304.83,223.22l130.55 -89.82 22.21 21.61c-87.69,54.22 -125.41,124.69 -243.37,160.82 -127.2,38.96 -194.7,-31.2 -265.51,-90.99 -18.84,-231.73 51.26,-348.55 288.04,-322.72 147.26,85.46 104.45,147.89 63.48,289.39zm-4122.5 1433.98c-61.8,46.03 -66.89,81.14 -107.94,121.12 -47.91,46.67 -76.33,37.06 -134.67,95.68l-98.38 5.12c111.92,-159.48 -104.58,109.58 -198.09,-114.25 0.51,-24.14 -1.77,-45.56 -5.09,-66.84 0.87,-69.38 23.19,-122.57 63.31,-160.79 60.43,-144.78 185.45,-275.16 417.55,-245.37 43.97,55.93 45.26,29.04 80.22,120.79 8.95,90.79 28.37,144.41 -39.01,199.68l22.1 44.86zm3926.95 -1510.47c34.76,-59.41 -33.72,-28.05 55.2,-45.29 92.96,-18.04 41.01,9.27 63.47,17.83 -61.2,86.25 -24.14,66.49 -118.67,27.46zm0 0c31.09,65.18 -17.4,12.03 53.94,66.12 174.56,-33.99 171.62,-317.04 -120.53,-222.86 5.44,2.37 13.98,0.35 16.65,6.39l78.86 4.31c81.74,6.01 53.4,-3.08 99.75,42.31 -57.65,38.09 2.23,4.99 -74.39,26.09 -50.68,13.95 -17.98,-9.86 -73.73,25.15 -20.99,120.85 -7.66,13.18 19.45,52.49zm768.62 1266.49c20.42,45.51 -21.63,39.76 66.56,60.88 33.21,7.95 106.17,0.15 143.82,-1.48l-22.07 44.4c-242.42,90.3 -375.01,-180.49 -259.34,-379.32 95.85,-164.78 322.38,-242.08 550.19,-136.5 431.02,199.76 71.91,833.23 -563.79,599.2 -98.21,-129.43 -208.76,-258.02 -106.02,-477.59 143.42,-306.53 516.99,-403.61 878.61,-46.18 177.72,175.67 57.56,299.94 3.98,482.76 -23.01,12.88 -33.63,18.39 -76.98,58.75 -229.07,213.24 -401.19,165.71 -754.26,231.31 -242.74,45.12 -729.24,102.64 -888.6,232.36 -102.97,38.02 -166.13,68.22 -249.22,128.19 -92.4,66.67 -98.02,105.07 -205.36,144.4 66.33,-193.66 105.62,-160.32 218.37,-282.75 158.62,-79.15 284.27,-159.61 477.24,-221.67 214.86,-69.09 379.99,-66.92 594.13,-108.81 317.49,-37.28 588.46,-24.8 754.44,-197.13 230.59,-239.42 151.87,-471.61 -88.7,-589.42 -102.3,-50.09 -253.59,-65.21 -365.78,-22.93 -79.33,29.9 -203.18,156.11 -238.01,248.1 -139.06,367.22 326.24,491.98 478.78,335.16 56.57,-19.45 4.61,23.1 71.35,-32.84 42.7,-35.77 20.17,-22.99 30.51,-56.82 28.23,-19.59 37.66,-8.69 73.34,-68.93 13.5,-22.78 24.67,-65.89 28.06,-94.41 7.8,-65.52 -0.29,-116.99 -34.07,-141.48l-24.65 -81.23c-444.86,-174.61 -643.39,306.18 -492.53,373.98zm239.46 -77.63l-161.38 44.76c-56.92,-196.24 164.73,-372.42 357.67,-262.64 -5.83,3.51 -14.18,7.05 -18.38,9l-56.51 25.18c-70.73,36.12 -70.44,47.84 -124.19,138.38l2.79 45.32zm-5377.21 207.46l-3.76 136.1c6.8,32.21 -16.77,76.48 72.91,91.48 49.19,8.25 78.38,-12.17 115.51,-35.14 66.42,-41.09 112.94,-90.32 79.17,-205.29 -110.16,13.56 -125.22,100.31 -187.31,164.28 -106.83,-17.75 -31.23,9.34 -62.83,-33.16 31.84,-124.79 101.11,-222.52 275.26,-177.06 60.63,94.32 29.04,120.33 -1.35,231.4 32.19,-29.58 86.11,38.5 76.2,-219.44 -6.49,-1.74 -1.98,1.44 -33.88,-25.88 -61.88,-52.95 -96.87,-61.71 -200.6,-16.69l-113.74 75.72c-2.54,-4.68 -10.18,9.34 -15.58,13.68zm3064.53 359.58c151.2,-18.09 242.28,-47.28 323.97,69.09 -15.16,197.97 -195.9,181.03 -381.95,169.05 255.25,159.02 620.91,-173.25 300.89,-275.66 -58.15,-18.6 -136.5,-33.35 -196.91,-3.64 -53.63,26.38 -18.77,12.67 -46,41.16 -296.52,113.3 230.78,369.06 255.82,78.51l-276.39 13.8c2.1,-57.77 6.75,-64.09 20.57,-92.31zm-2369.2 -1614.29l-30.98 25.85c-5.14,4.48 -21.83,21.32 -27.77,26.18 -46.01,37.58 -89.47,63.33 -158.92,68.57 -100.19,7.55 -148.37,-42.61 -211.53,-77.35 -2.81,-151.03 4.46,-135.82 63.45,-241.5 104.42,-46.68 197.09,-116.51 350.95,-81.83 12.71,2.69 41.85,16.14 45.81,16.5 96.78,8.69 -59.57,-50.83 160.32,4.6 126.76,31.96 236.56,47.63 340.78,2.98 166.71,-71.41 315.46,-268.62 280.44,-514 -51.13,-39.48 -91.36,-26.44 -175.82,-19.45 -5.59,81.69 0.07,96.37 -41.99,169.51 -9.17,15.95 -31.94,44.94 -44.32,55.79 -64.39,56.49 -6.9,16.33 -59.55,31.25 -45.49,69.27 -84.15,84.82 -178.11,118.49 -171.53,61.45 -563.35,67.34 -678.51,216.16 -132.51,83.2 -145.34,267.46 -9.69,334.98 79.62,39.64 158.66,36.22 249.63,4.6 86.26,-29.99 124.88,-45.75 125.81,-141.33 3.63,-4.67 28.05,39.82 24.12,-68.12 -1.63,-44.66 -2.16,-29.78 -17.43,-57.97 -25.09,-46.32 -73.15,-66.73 -97.65,-81.57 -197.01,-7.5 -326.88,79.26 -235.51,266.98 129.5,-19.86 21.38,16.87 115.21,-40.35l91.48 -119.14 80.5 -12.29c26.9,43.59 26.9,44.54 39.28,112.46zm3406.87 -552.45c194.6,-58.92 344.82,-71.11 555.55,-42.01 140.52,74.73 189.27,93.27 253.78,233.77 67.29,146.56 37.34,283.1 -35.45,394.06 -202.67,331.31 -978.41,299.72 -834.45,-244.58 61.75,-108.83 121.03,-204.58 258.15,-232.25 -138.76,208.44 -205.77,417.34 45.01,551.19 197.95,1.12 285.02,-93.66 371.53,-192.72 48.13,-86.85 67.2,-164.72 5.75,-273.06l-52.92 -78.99 -119.48 -28.41c-89.53,-54.61 -226.08,-33.44 -331.85,1.16 -133.28,43.58 -191.15,78.19 -236.36,177.77 -171.11,199.8 -128.81,477.6 78.14,590.99 284.03,155.61 525.27,7.79 753.36,-9.63 -54.16,58.98 -63.49,146.97 -138.83,152.57 -385.33,-126.78 -880.53,139.64 -982.63,-340.99l0.79 -198.33c39.39,-133.74 145.04,-243.23 191.64,-335.32 57.45,-26.3 137.66,-80.71 218.27,-125.22zm820.82 576.7c71.88,-244.68 74.43,-414.2 -120.54,-557.48 -233.23,-171.39 -362.29,-114.25 -637.78,-65.43 23.2,-17.56 66.81,-49.02 101.95,-79.25 250.72,-77.53 350.48,-139.83 626.41,-18.98 209.58,91.8 232.05,177.22 271.66,434.19 -50,56.86 -47.71,106.42 -110.15,173.61 -26.72,28.76 -98.58,89.35 -131.55,113.34zm-1601.45 -816.28l-687.99 -0.39c122.61,148.3 563.88,126.44 687.99,0.39zm540.45 1847.93c-408.31,169.14 -213.04,298.17 -3.42,185.14 94.75,-51.08 113.01,-73.78 164.19,-153.16l-5.23 -11.63c33.76,-27.84 37.88,16.4 34.96,-89.46 -3.46,-124.91 -143.36,-138.04 -204.2,-170.68l287.61 -5.04c276.88,100.03 165.33,237.77 -10.12,349.24 -94.68,31.06 -237.19,81.87 -276.87,148.56 -86.74,42.72 -70.24,39.81 -121.8,102.22 -141.68,-51.29 -41.58,-77.11 -259.79,-123.85l21.26 -104.39c37.15,-6.8 182.82,-88.7 215.46,-119.96 116.55,-34.71 113.59,-12.88 121.06,-137.49 -291.21,-102.73 -359.44,63.95 -555.71,-93.38 263.04,46.05 398.84,-29.89 632.59,53.25l96.69 21.36c7.5,79.51 -10.12,87.55 -45.38,137.41l-91.3 11.86zm-214.34 -87.11c-61.63,17.32 -38,10.32 -105.94,45.42 -48.33,24.96 -53.28,22.87 -98.15,55.55 -53.02,38.64 -98.14,86.59 -118.09,171.52l-166.84 35.98 -43.17 -24.18c96.26,-56.21 244.33,-163.63 297.57,-270.75 19.94,-56.4 -11.36,-47.07 96.01,-59.77 1.52,-0.17 75.85,5.44 78,6.1 71.23,21.56 16.57,-5.45 60.61,40.13zm603.01 1266.3c98.32,49.82 84.74,92.21 64.5,210.76 -73.43,6.9 -87.02,7.99 -146.76,-45.85l104.53 -66.45 -22.27 -98.46zm1957.05 -1934.25l38 -577.26 -3.95 -89.18c-245.06,244.2 -254.75,379.26 -34.05,666.44zm-3327.75 1330.53c66.95,-61 201.68,-137.5 341.79,-151.56 205.12,-20.59 272.14,21.26 358.62,128.47 24.09,155.22 -54.74,208.55 -123.61,276.42 -144.87,45.27 -246.29,102.39 -410.28,43.36 -85.04,-30.61 -144.64,-91.52 -164.6,-172.46 -17.92,-72.66 -11.06,-50.98 -1.92,-124.23zm109.27 -1451.75c-13.59,135.88 -106.78,254.99 -51.54,402.43 25.98,89.28 -4.94,21.29 24.86,69.62 33.61,54.51 23.52,34.74 53.51,53.93 6.84,19.03 -12.2,32.39 71.26,79.84 37.87,21.54 80.43,33.89 110.4,47.79l15.9 74c14.11,174.11 -209.12,291.88 -335.94,370.99 -326.94,203.92 -182.3,315.8 -362.35,354.68 -90.14,-125.66 -76.99,-141.47 250.92,-341.24 109.33,-85.46 382.45,-241.97 280.9,-466.18 -170.72,-376.89 -892.08,54.96 -1312.64,15.37 -234.84,-22.1 -410.34,-174.41 -408.62,-380.97 123.68,185.38 188.78,246.79 566.4,248.29 263.61,1.05 479.82,-61.59 681.84,-155.59 147.7,-109.91 204.86,-70.09 292.44,-242.31l122.66 -130.65zm2790.28 -980.19l-102.11 3.19c-9.88,110.65 -7.21,184.63 -106.37,235.21 -24.26,-51.7 -23.46,-18.48 1.8,-102.18 25.03,-82.95 28.16,-23.79 12.82,-128.75l-134.22 0.87c2.83,90.11 -160.43,433.19 83.86,408.05 211.16,-21.72 247.84,-226.96 244.22,-416.39zm-2749.09 3772.82c-75.26,68.21 -266.28,69.59 -370.51,51.96l-100.21 -39.1c60.54,-67.25 82.49,-41.16 109.48,-145.51l83.91 12.61c108.98,56.87 154.86,113.1 277.33,120.04zm2028.83 -1628.95l71.23 34.37 -170.79 50.36c-87.11,-2.76 -14.07,5.1 -44.5,-26.66l83.26 -67.91 60.8 9.84zm-3225.54 232.68c-76.59,66.74 -331.88,9.12 -424.83,-15.18 55.21,-235.86 357.11,-232.88 609.15,-281.85 -18.78,47.28 45.2,15.42 -72.17,56.54 -82.33,28.84 -151.88,5.04 -235.32,122.59 70.95,168.48 97.83,113.58 123.17,117.9zm-791.73 -771.39c-63.31,-39.56 -5,-4.13 -54.3,-54.79 -47.98,-49.31 -18.06,-29.13 -69.27,-51.04 -62.99,-93.91 -140,-94.84 -278.61,-112.36l27.33 -27.9c6.32,-5.72 247.06,-194.45 404.61,-250.65 -72.04,222.04 -77.74,275.47 -29.76,496.74zm812.77 -953.11c-89.72,26.72 -224.36,96.65 -266.27,175.83 -153.53,74.27 -515.18,563.46 -202.94,915.37 285.65,321.94 737.47,-82.76 1105.73,-55.11 -11.81,144.45 -53.57,103.16 -125.33,207.46 -85.05,-1.45 -851.64,74.08 -917.02,97.92 -54.85,-111.5 -200.54,-212.44 -235.66,-412.69 -34.7,-197.94 -12.26,-400.07 59.95,-565.86 207.03,-475.36 579.36,-487.68 716.22,-593.71 400.6,50.93 471.38,273.25 424.62,348.88 -60.74,-107.26 -72.47,-144.24 -221.48,-174.59 -119.94,-24.43 -274.83,6.62 -337.82,56.5zm404.03 1456.53l181.49 -130.23 132.05 -57.71c55.61,-136.42 134.36,-84.66 69.08,-261.98 111.13,-0.81 133.87,8.84 215.21,65.68 -18.81,162.4 -86.84,168.14 -207.62,233.05 -17.36,38.65 -10.73,22.18 -66.51,66.74 -57.95,37.77 -130.31,90.05 -172.83,130.56 -216.73,206.43 83.62,290.88 134.06,329.26 -1.54,1.24 -23.09,113.52 -186.25,-19.8 -60.71,-49.61 -51.94,-66.03 -127.48,-119.04l28.8 -236.53zm2698.08 -1099.2c7.51,-9.66 8,-14.67 31.28,-36.61 64.83,-61.09 189,-124.5 230.96,-207.42 6.48,-1.68 15.94,-11.9 18.96,-6.48 3.03,5.41 14.57,-5.48 18.85,-6.76 5.53,-1.66 29.87,-12.18 37.88,-13.47 75.69,-12.27 16.09,-18.21 93.49,6.15l4.13 65.46c-123.73,74.98 -252.02,158.41 -435.55,199.13zm194.03 163.29c-9.94,-103.53 193.44,-83.85 289.81,-88.41l38.48 0.95c-71.76,81.98 -173.26,101.97 -328.29,87.46zm294.88 -140.51l-236.35 -26.81c133.32,-92.42 195.58,50.91 250.13,-123.59l-14.04 -125.09c7.37,-4.45 17.01,-10.15 22.26,-13.12 4.84,-2.75 15.43,-9.07 20.62,-11.99l47.49 -24.96c-178.18,-15.85 -57.5,-27.33 -168.72,-71.89 -124.87,-50.04 -118.44,0.62 -156.82,-153.29l62.54 23.61c178,59.7 192.51,-3.14 245.94,101.44l0.16 -24.91c63.92,-19.38 89.5,-17.86 182.37,-25.04 -2.1,13.92 -19.24,74.96 -21.36,85.4l-9.75 50.5c-5.74,44.43 -5.42,50.04 -0.62,107.87l-107.25 6.44c146.37,107.22 -41.22,127.28 -116.6,225.43zm520.83 496.01c-150.14,-58.35 -91.32,-248.72 -603.98,-289.05l307.54 -8.5c171.57,13.03 265.66,92.16 296.44,297.55zm-3474.41 1085.6l55.45 -4.65c-4.95,93.87 13.98,53.54 -35.75,120.89 -65.06,-17.57 2.28,32.47 -83.44,-58.35 -35.3,-37.4 -49.64,-53.31 -73.98,-118.92l115.82 0.17c16.33,24.82 35.07,-39.2 21.9,60.86zm1074.37 -1871.1l-24.01 33.86c-2.7,5.38 -7.14,12.05 -9.72,18.31l-5.82 197.61c79.01,262.28 332.11,315.25 487.65,358.13 -224.33,-44.99 -405.76,28.72 -592.14,-160.44 -183.18,-185.91 36.33,-392.96 122.01,-506.61l22.03 59.14zm1591.36 2367.11c44.81,-184.9 368.08,-210.19 413.93,37.25 -176.73,-216.08 -266.47,93.05 -413.93,-37.25zm-4691.05 648.09c5.98,-4.95 15.56,-20.33 17.85,-14.94 2.07,4.84 13.09,-11.35 15.62,-13.81 40.38,-39.28 6.8,-1.15 28.22,-30.06l-142.4 -13.52 16.26 -124.18c180.85,-2.25 101.02,76.85 289.51,101.56 -70.01,112.25 -67.2,111.07 -225.06,94.95zm310.09 -467.93c4.47,-47.91 45.85,-52.61 59.36,-55.23l-6.2 123.81c-17.13,-11.95 -58.6,-10.36 -53.16,-68.58zm4807.48 -2245.67c2.97,-2.53 109.29,-85.6 117.04,-91.79l53.17 97.34 -170.21 -5.55z"/>
   </g>
   <path class="fil0" d="M5658.77 2906.92c25.42,-16.06 56.61,-25.53 90.17,-25.53l176.66 0 20.26 16.74c62.86,-38.77 135.85,-62.47 219.85,-62.47 233.62,0 358.22,179.65 358.22,364.92l0 148.32c0,73.71 -68.34,134.91 -154.14,134.91l-199.95 0c-18.85,0 -35.98,-2.46 -51.42,-6.98l0 555.25c0,74.34 -68.8,134.26 -154.15,134.26l-215.33 0c-45.56,0 -86.41,-17.08 -114.6,-44.32l-30.56 41.37 -81.04 0c-3.56,0 -7.36,-0.08 -10.93,0.08l-7.97 0.9 -28 0c-3.25,0.3 -6.52,0.51 -9.81,0.66l-5.97 1.31 -93 0c-60.27,0 -96.67,-21.4 -120.46,-51.91 -62.18,35.83 -134.1,57.79 -216.78,57.79 -105.65,0 -192.52,-36.95 -255.27,-95.18 -74.34,55.79 -171.51,89.3 -282.66,89.3l-47.27 0c-155.26,0 -272.48,-69.19 -347.4,-168.43l0 34.17c0,74.64 -70.11,134.26 -155.27,134.26l-221.7 0c-77.71,0 -141.7,-49.68 -152.54,-114.69 -19.68,17.79 -41.9,34.24 -66.95,49.11 -74.23,44.06 -146.31,65.58 -236.67,65.58l-56.27 0c-155.88,0 -275.18,-66.29 -355.28,-173.45 -75.26,104.66 -205.26,173.45 -364.97,173.45l-47.26 0c-160.19,0 -279.91,-73.57 -354.43,-177.83 -85.63,104.81 -221.89,177.83 -373.32,177.83l-35.27 0c-131.52,0 -233.33,-38.47 -306.18,-101.99 -57.53,150.52 -214.47,258.81 -410.31,258.81l-55.9 0c-283.62,0 -439.24,-242.58 -439.24,-464.25l0 -647.23c0,-156.35 109.15,-287.15 271.9,-348.42 13.8,-5.19 28.32,-9.53 43.28,-13.12l0 -852.72c0,-65 60.48,-118.97 135.69,-118.97l38.76 0c35.68,-27.98 81.23,-45.57 135.51,-45.57 26.94,0 51.2,4.4 72.84,12.28 24.82,-46.66 61.99,-87.53 115.49,-116.46 36.66,-19.84 77.27,-32.1 120.78,-32.1l10.95 0c117.83,0 196.37,76.61 232.12,166.52l44.98 0c31.26,-18.79 68.02,-30.24 111.01,-30.24 17,0 32.86,1.63 47.6,4.71 24.75,-43.52 60.74,-81.53 111.32,-108.89 36.67,-19.84 77.28,-32.1 120.79,-32.1l10.94 0c35.09,0 66.68,6.81 94.7,18.73l0 -243.45c0,-70.42 15.09,-139.44 44.52,-200.88l-30.7 0c-29.85,0 -52.3,-6.53 -69.48,-17.29 -30.84,12.89 -65.16,20.3 -103.13,20.3 -41.05,0 -77.84,-8.96 -109.32,-24.55 -20.31,13.52 -45.7,21.54 -73.29,21.54l-101.95 0c-18.97,0 -36.96,-3.79 -53,-10.56 -16.04,6.77 -34.03,10.56 -52.99,10.56l-109.45 0c-21.53,0 -41.82,-4.88 -59.41,-13.48 -17.49,8.59 -37.7,13.48 -59.25,13.48l-101.96 0c-19.19,0 -37.39,-3.88 -53.57,-10.8 -16.18,6.92 -34.38,10.8 -53.57,10.8l-109.45 0c-20.3,0 -39.48,-4.34 -56.35,-12.03 -16.87,7.69 -36.05,12.03 -56.35,12.03l-145.2 0 -9.84 -15.63c-17.24,3.48 -35.32,5.27 -54.07,5.27 -149.15,0 -229.89,-108.66 -229.89,-228.32l0 -420.76c0,-58.12 54.5,-105.58 121.22,-105.58l101.96 0c19.04,0 37.03,3.89 53,10.79 16.02,-6.9 34.06,-10.79 53.18,-10.79l109.64 0c20.31,0 39.49,4.41 56.35,12.17 16.86,-7.76 36.04,-12.17 56.35,-12.17l124.84 0 21.19 18.89c20.2,-5.13 41.55,-7.85 63.84,-7.85 39.39,0 75.17,8.52 106.13,23.35l0 -68.78c0,-58.26 55.05,-105.07 121.21,-105.07l109.45 0c66.6,0 121.21,46.78 121.21,105.07l0 46.69c37.81,3.17 71.63,14.22 100.44,31.09 31.71,-52.83 83.67,-94.82 155.32,-119.27 33.63,-11.47 68.94,-18.43 105.17,-18.43l13.43 0c144.82,0 266.77,102.58 266.77,229.49l0 451.21c59.48,-32.05 130.93,-50.69 213.76,-50.69l17.97 0c144.83,0 264.68,52.92 339.25,139.81 22.16,-10.93 47.75,-17.17 75.06,-17.17l201.21 0c32.26,0 62.34,8.59 87.23,23.32 58.1,-86.29 158.33,-145.96 288.39,-145.96 7.46,0 14.85,0.19 22.15,0.58l0 -132.77c0,-73.96 68.1,-133.79 153.28,-133.79l193.75 0c84.86,0 154.62,59.47 154.62,133.79l0 96.7c48.43,-52.11 113.28,-93.93 194.65,-121.69 52.44,-17.89 107.58,-29.01 164.1,-29.01l23.76 0c192.47,0 359.43,117.66 401.58,275.64 59.03,-54.75 140.87,-89.45 240.06,-89.45 7.46,0 14.85,0.19 22.15,0.58l0 -132.77c0,-73.96 68.1,-133.79 153.27,-133.79l193.76 0c84.85,0 154.62,59.47 154.62,133.79l0 249.96c40.55,-38.41 91.22,-69.68 149.17,-91.5 51.98,-19.56 114.46,-26.27 170.9,-26.27l21.04 0c239.87,0 422.35,157.33 422.35,366.66l0 49.35c0,105.8 -41.47,178.76 -109.03,235.67 63.05,17.04 109.03,68.62 109.03,128.72l0 227.26c0,199.89 -174.36,362.82 -406.74,362.82l-50.56 0c-158.07,0 -274.08,-80.15 -341.9,-188.91 -28.46,29.54 -71.3,48.24 -118.88,48.24l-159.9 0c-59.19,39.28 -133.69,62.36 -214.37,62.36 -111.92,0 -199.99,-44.31 -257.36,-117.47l-37.81 51.26 -81.13 0c-2.84,0 -5.82,-0.05 -8.69,0.05l-7.46 0.85 -25.62 0c-2.48,0.21 -4.97,0.38 -7.48,0.51l-5.79 1.26 -85.78 0c-54.08,0 -88.89,-17.15 -112.57,-42.65 -55.79,29.93 -119.69,47.97 -192.47,47.97 -87.29,0 -161.16,-26.77 -218.01,-70.38 -26.93,39.73 -76.86,66.24 -133.51,66.24l-159.9 0c-59.19,39.28 -133.69,62.36 -214.37,62.36 -108.65,0 -194.83,-41.76 -252.26,-111.14 -28.46,29.16 -71.02,47.6 -118.27,47.6l-200.54 0c-63.2,0 -117.31,-33 -140.93,-80.36 -68.81,50.29 -158.06,80.36 -260.13,80.36l-42.75 0c-104.08,0 -190.08,-33.11 -256.33,-85.98l0 490.48 -44.76 96.2 -84.2 0 -3.59 0.65 -6.42 0 -3.76 1.3 -56.47 0c-25.44,0 -45.89,-3.56 -62.45,-9.78 -23.36,8.71 -49.31,13.66 -78.18,13.66 -74.4,0 -127.94,-31.72 -164.02,-77.48 -20.11,43.01 -68.04,73.6 -125.08,73.6l-89.79 0c-8.43,0 -16.65,-0.68 -24.63,-1.95l-64.37 0 -3.6 0.65 -6.42 0 -3.76 1.3 -56.46 0c-25.45,0 -45.9,-3.56 -62.45,-9.78 -23.36,8.71 -49.32,13.66 -78.19,13.66 -34.42,0 -64.38,-6.79 -90.21,-18.62 -24.81,25.23 -56.02,44.58 -94,54.14l0 59.8c73.46,29.51 135.02,75.47 179.08,133.23 87.5,-116.33 229.63,-160.26 385.64,-160.26 161.24,0 297.24,57.1 380.01,165.36 75.99,-104.29 199.37,-175.16 366.5,-175.16l19.88 0c162.94,0 296,62.31 374.39,163.68 73.32,-111.07 197.9,-185.25 393.12,-185.25 165.35,0 305.14,58.4 388.64,183.39 25.46,-16.48 56.98,-26.23 91.16,-26.23l222.45 0c20.67,0 40.44,3.51 58.55,9.89l0 -98.72c-48.69,34.28 -109.99,55.12 -175.59,55.12 -158.02,0 -285.82,-113.68 -285.82,-250.89 0,-134.43 116.16,-245.02 274.57,-245.02l26.26 0c111.78,0 205.86,68.15 246.57,155.08 20.59,-8.92 43.75,-13.94 68.16,-13.94l222.82 0c85,0 154.15,60.57 154.15,134.26l0 128.43 93.44 0c51.71,0 97.28,22.57 125.21,56.71 49.37,-107.84 143.34,-193.65 282.77,-241.22 56.15,-19.16 115.2,-31.12 175.72,-31.12l26.26 0c198.49,0 371.77,117.32 423.75,277.42zm-2530.24 -2221.65l23.75 0c143.59,0 256.76,116.59 256.76,237.51 0,127.24 -123.85,235.75 -270.34,235.75 -150.76,0 -272.7,-108.36 -272.7,-239.3 0,-128.36 111.36,-233.96 262.53,-233.96zm1580.58 2573.35c-24.24,13.71 -53.23,21.65 -84.42,21.65l-93.07 0 0 270.67c12.21,-2.62 25.36,-4.01 39.42,-4.01l148.04 0c-6.44,-14.83 -9.97,-30.91 -9.97,-47.74l0 -240.57zm-3423.38 296.68c1.93,-1.53 3.91,-3.03 5.93,-4.48 -4.16,-6.23 -8.11,-12.59 -11.84,-19.08 -7.41,6.26 -15.1,12.35 -23.07,18.28 9.97,0.95 19.66,2.74 28.98,5.28z"/>
   <path class="fil2" d="M654.38 1032.32c0,62.04 30.91,125.75 112.13,125.75 43.2,0 75.07,-17.56 96.58,-48.49l37.05 58.86 75.46 0c1.73,0 3.45,-1 3.45,-2.51l0 -554.35c0,-1.51 -1.72,-3.01 -3.45,-3.01l-109.64 0c-1.72,0 -2.87,1.5 -2.87,3.01l0 398.16c0,24.92 -25.54,35.29 -50.5,39.63 -1.16,-1 -2.88,-1 -3.45,-1 -36.3,0 -46.47,-43.14 -46.47,-66.05l0 -370.74c0,-1.01 -1.16,-3.01 -2.88,-3.01l-101.96 0c-1.72,0 -3.45,1.5 -3.45,3.01l0 420.74zm430.48 -420.74l0 554.35c0,1.51 1.72,2.51 3.45,2.51l109.45 0c1.72,0 3.45,-1 3.45,-2.51l0 -392.98c0,-27.43 23.23,-42.98 47.23,-42.98 36.49,0 53,35.12 53,57.19l0 378.77c0,1.51 1.72,2.51 3.45,2.51l101.96 0c1.72,0 2.88,-1 2.88,-2.51l0 -433.62c0,-55.35 -40.32,-112.71 -111.55,-112.71 -41.1,0 -74.31,18.73 -98.7,48.5 -1.72,-2.34 -3.46,-4.85 -4.03,-6.36 -0.57,-0.5 -0.57,-1 -0.57,-1 0,-0.84 -0.4,-1.84 -0.97,-2.34 0,-1 0,-1.51 -0.57,-1.51l0 -1c-0.58,-1 -0.58,-1 -1.15,-1.5 -6.73,-12.71 -20.16,-38.3 -28.61,-45.82l-75.27 0c-1.73,0 -3.45,1.5 -3.45,3.01zm437.18 -139.97l0 694.32c0,1.51 1.74,2.51 3.46,2.51l109.44 0c1.74,0 3.46,-1 3.46,-2.51l0 -392.98c0,-20.9 19.59,-42.98 45.12,-42.98l13.44 0c28.23,11.21 40.51,30.77 40.51,57.19l0 378.77c0,1.51 1.73,2.51 3.46,2.51l101.96 0c1.72,0 2.88,-1 2.88,-2.51l0 -431.11c0,-56.19 -38.79,-114.88 -112.13,-114.88 -39.55,0 -71.62,16.55 -94.28,46.82l-0.96 0 0 -195.15c0,-1.51 -1.72,-2.51 -3.46,-2.51l-109.44 0c-1.15,0 -3.46,1 -3.46,2.51zm595.03 42.64c-20.36,0 -41.29,4.01 -62.21,11.37 -81.02,27.43 -117.51,88.13 -117.51,163.05l0 204.52c0,1.5 1.16,2.5 2.88,2.5l110.02 0 2.88 -1c0,-6.35 0,-13.21 0.57,-19.57l0 -20.23c0.59,-10.2 0.59,-21.57 0.59,-32.27 0,-7.86 0,-15.22 0.57,-22.08l0 -18.73c0.38,-10.2 0.38,-22.07 0.38,-33.78 0,-15.22 0,-28.93 2.31,-42.14 0,-1 0.57,-4.01 1.72,-4.51 7.88,-21.07 23.81,-37.63 52.61,-37.63 52.61,0 59.34,54.85 59.34,89.63 0,41.31 -9.6,78.1 -31.69,113.88 -21.51,34.29 -61.05,49.5 -101.57,61.21 -70.85,20.57 -124.8,56.02 -124.8,126.09 0,59.7 39.94,116.89 112.32,116.89 68.94,0 115.78,-50.33 145.74,-95.82 5.75,23.41 11.32,46.49 17.46,66.89 1.73,6.35 7.3,25.92 9.42,25.92l38.21 0c2.29,-0.5 4.98,-0.5 4.98,-0.5 2.88,0 4.99,0 6.73,-0.5l15.16 0c4.41,-0.5 9.6,-0.5 14.6,-0.5l1.72 -2.35 0 -523.42c0,-70.57 -69.5,-126.92 -149,-126.92l-13.43 0zm-83.71 498.67c1.15,-3.01 1.72,-6.02 1.72,-6.86 0.57,-2.51 1.16,-4.01 1.16,-4.01 0.57,-1.51 0.57,-2.51 0.57,-2.51 0,-0.83 0,-1.34 0.58,-1.84l0 -1c0.57,-0.5 0.57,-1 0.57,-2.01 0.58,-0.5 0.58,-1 0.58,-1 0,-1.01 0,-1.51 0.57,-1.84 0,-0.5 0,-0.5 0.58,-1 0,-0.51 0,-1.01 0.38,-1.51l0 -1c0.58,0 0.58,-0.5 0.58,-1.01 0,0 0.57,-0.5 1.16,-2.34 2.29,-12.37 29.94,-31.44 61.05,-31.44 36.09,0 70.08,26.43 70.08,57.36 0,2.51 0,4.35 -0.57,5.86l0 2.5c0,0.51 0,1.01 -0.58,1.51l0 1.34c-0.57,0.5 -0.57,1 -0.57,1.5 -0.59,1.01 -1.16,2.01 -1.54,5.35 -6.91,30.44 -33.99,44.15 -74.12,44.15 -1.14,0 -9.22,-2.34 -10.17,-2.84 -0.58,-0.5 -1.16,-0.5 -1.73,-0.5 -0.58,-0.51 -0.58,-0.51 -1.15,-0.51 -1.16,0 -1.73,0 -2.88,-0.5 -1.15,0 -2.88,-0.5 -5.57,-1.5 -23.23,-8.36 -40.7,-26.42 -40.7,-54.35z"/>
   <path class="fil3" d="M2600.21 2140.95l42.75 0c157.78,0 259.92,-108.16 259.92,-240.26l0 -171.11c0,-1.78 -2.04,-5.32 -5.1,-5.32l-183.22 0c-3.05,0 -5.09,2.66 -5.09,13l0 31.03c1.01,8.87 1.01,20.1 1.01,33.1 0,22.46 -1.01,48.17 -3.73,55.26 0,36.35 -39.01,64.72 -79.74,64.72 -5.08,0 -14.92,0 -18.99,-2.66 -35.63,-9.45 -63.46,-27.48 -63.46,-62.06l0 -398.66c0,-44.92 34.62,-64.72 82.45,-71.81 52.6,6.2 82.46,33.69 82.46,80.38l0 78.61c0,2.66 2.04,5.32 5.09,5.32l183.22 0c3.06,0 5.1,-2.66 5.1,-5.32l0 -133.87c0,-140.67 -105.19,-240.26 -273.82,-240.26l-18 0c-189.33,0 -278.23,148.64 -278.23,300.84l0 368.22c0,138.31 86.19,300.85 267.38,300.85zm528.32 -1326.32c-74.31,0 -114.01,52.9 -114.01,104.62 0,65.61 62.43,109.93 124.18,109.93 66.17,0 121.81,-52.01 121.81,-106.39 0,-50.23 -48.52,-108.16 -108.24,-108.16l-23.74 0zm-85.17 479.05c-2.38,0 -4.41,1.77 -4.41,4.43l0 838.41c0,2.66 2.03,4.43 5.09,4.43l200.52 0c3.06,0 6.11,-1.77 6.11,-4.43l0 -838.41c0,-2.66 -3.05,-4.43 -6.11,-4.43l-201.2 0zm380.36 80.97l0 536.38c0,113.48 19.01,293.46 191.38,293.46 109.25,0 199.5,-71.82 199.5,-168.75l1.7 0 5.09 8.57 0 0.89c1.02,0.89 1.02,0.89 2.04,2.66l0 0.89c2.04,2.36 5.09,7.68 7.81,13 13.91,25.12 37.99,64.72 54.96,80.38l103.16 0c3.05,0 6.1,-1.77 6.1,-4.43l0 -1228.2c0,-2.66 -3.05,-4.44 -6.1,-4.44l-193.75 0c-3.05,0 -4.75,1.78 -4.75,4.44l0 344.87c-41.74,-51.12 -97.39,-83.33 -170.67,-83.33 -128.94,0 -196.47,102.25 -196.47,203.61zm282.65 -8.57c44.45,0 84.15,31.92 84.15,76.25l0 514.51c0,42.55 -37.66,76.24 -85.16,76.24l-12.9 0c-36.99,0 -77.36,-32.8 -77.36,-66.79l0 -498.84c0,-43.44 30.53,-101.37 91.27,-101.37l0 0zm796.36 -381.22c-35.97,0 -72.95,7.09 -109.93,20.09 -143.19,48.47 -207.66,155.74 -207.66,288.14l0 361.42c0,2.66 2.03,4.44 5.09,4.44l194.43 0 5.08 -1.78c0,-11.23 0,-23.34 1.01,-34.57l0 -35.76c1.03,-18.03 1.03,-38.12 1.03,-57.04 0,-13.89 0,-26.89 1.02,-39.01l0 -33.09c0.67,-18.03 0.67,-39.01 0.67,-59.7 0,-26.89 0,-51.13 4.08,-74.47 0,-1.78 1.01,-7.1 3.04,-7.98 13.92,-37.24 42.08,-66.5 92.98,-66.5 92.97,0 104.85,96.94 104.85,158.41 0,72.99 -16.97,138.01 -55.99,201.25 -38,60.58 -107.9,87.47 -179.5,108.16 -125.2,36.35 -220.55,99 -220.55,222.83 0,105.5 70.58,206.57 198.5,206.57 121.82,0 204.6,-88.95 257.54,-169.34 10.17,41.38 20.01,82.16 30.88,118.21 3.05,11.23 12.89,45.81 16.62,45.81l67.53 0c4.07,-0.89 8.81,-0.89 8.81,-0.89 5.1,0 8.83,0 11.89,-0.88l26.79 0c7.81,-0.89 16.97,-0.89 25.79,-0.89l3.06 -4.14 0 -924.99c0,-124.71 -122.83,-224.3 -263.31,-224.3l-23.75 0zm-147.94 881.25c2.04,-5.32 3.06,-10.64 3.06,-12.12 1.02,-4.43 2.03,-7.09 2.03,-7.09 1.02,-2.66 1.02,-4.43 1.02,-4.43 0,-1.48 0,-2.37 1.02,-3.25l0 -1.78c1.01,-0.88 1.01,-1.77 1.01,-3.54 1.03,-0.89 1.03,-1.77 1.03,-1.77 0,-1.78 0,-2.66 1.01,-3.26 0,-0.88 0,-0.88 1.02,-1.77 0,-0.89 0,-1.77 0.67,-2.66l0 -1.77c1.03,0 1.03,-0.89 1.03,-1.77 0,0 1.02,-0.89 2.03,-4.14 4.08,-21.87 52.93,-55.56 107.9,-55.56 63.8,0 123.86,46.69 123.86,101.36 0,4.44 0,7.69 -1.03,10.35l0 4.43c0,0.89 0,1.77 -1.02,2.66l0 2.36c-1.01,0.89 -1.01,1.78 -1.01,2.66 -1.02,1.78 -2.04,3.55 -2.72,9.46 -12.22,53.79 -60.06,78.02 -130.97,78.02 -2.03,0 -16.29,-4.14 -17.98,-5.02 -1.02,-0.89 -2.04,-0.89 -3.05,-0.89 -1.03,-0.89 -1.03,-0.89 -2.05,-0.89 -2.03,0 -3.05,0 -5.08,-0.88 -2.04,0 -5.09,-0.89 -9.84,-2.66 -41.06,-14.78 -71.94,-46.7 -71.94,-96.05zm616.87 -491.46l0 536.38c0,113.48 19,293.46 191.37,293.46 109.25,0 199.51,-71.82 199.51,-168.75l1.7 0 5.08 8.57 0 0.89c1.02,0.89 1.02,0.89 2.05,2.66l0 0.89c2.03,2.36 5.08,7.68 7.8,13 13.91,25.12 38,64.72 54.97,80.38l103.15 0c3.05,0 6.11,-1.77 6.11,-4.43l0 -1228.2c0,-2.66 -3.06,-4.44 -6.11,-4.44l-193.74 0c-3.06,0 -4.76,1.78 -4.76,4.44l0 344.87c-41.73,-51.12 -97.38,-83.33 -170.67,-83.33 -128.94,0 -196.46,102.25 -196.46,203.61zm282.64 -8.57c44.46,0 84.15,31.92 84.15,76.25l0 514.51c0,42.55 -37.66,76.24 -85.16,76.24l-12.89 0c-37,0 -77.37,-32.8 -77.37,-66.79l0 -498.84c0,-43.44 30.53,-101.37 91.27,-101.37l0 0zm743.77 916.72l50.55 0c148.97,0 258.23,-103.73 258.23,-233.46l0 -227.26c0,-2.66 -3.06,-5.32 -5.77,-5.32l-183.23 0c-2.71,0 -5.77,2.66 -5.77,5.32l0 167.26c0,44.33 -29.86,78.91 -79.06,78.91 -47.5,0 -84.15,-31.92 -84.15,-71.81l0 -139.79c0,-104.02 53.28,-131.8 153.37,-176.13 95.35,-41.67 204.61,-89.25 204.61,-222.82l0 -49.36c0,-138.3 -116.39,-237.3 -273.83,-237.3l-21.04 0c-34.61,0 -80.08,3.54 -111.98,15.66 -98.39,36.94 -164.89,113.48 -164.89,207.75l0 585.44c0,134.17 85.5,302.91 262.96,302.91zm-83.81 -825.1c0,-54.68 53.27,-102.26 120.46,-102.26 66.5,0 111.97,47.58 111.97,109.05 0,3.55 -6.79,22.76 -9.84,30.44 -16.96,39.9 -50.56,64.13 -100.1,64.13 -68.2,0 -122.49,-44.92 -122.49,-101.36z"/>
   <path class="fil3" d="M916.53 2898.25l89.32 0c1.41,0 2.34,-1.3 2.34,-3.24l0 -252.47c19.4,37.36 45.06,60.69 77.75,60.69 56.16,0 91.36,-70.19 91.36,-141.68l0 -404.73c0,-82.93 -9.7,-208.19 -86.51,-208.19 -50.21,0 -93.7,53.13 -93.7,121.37 -1.72,-4.32 -3.6,-8.85 -6.41,-15.76 -6.89,-17.06 -15.02,-36.72 -23.78,-55.08 0,0 -2.35,-4.96 -2.82,-4.96l-47.55 0c-0.94,0 -2.82,1.29 -2.82,3.24l0 897.57c0,1.94 1.41,3.24 2.82,3.24zm91.66 -396.09l0 -375.79c0,-0.65 0.47,-3.02 1.42,-5.61 0.47,-2.6 0.93,-5.19 0.93,-5.84 5.48,-22.67 16.12,-41.03 34.88,-41.03l8.3 0c25.81,0 37.39,35.42 37.39,65.87l0 340.37c0,33.47 -12.99,81.42 -41.93,81.42l-8.76 0c0,0 -0.94,-0.65 -1.88,-0.65 -0.47,-0.43 -1.87,-1.08 -2.19,-1.08 -18.46,-8.85 -28.16,-31.75 -28.16,-57.66zm391.7 -689.81c-16.57,0 -33.62,5.18 -50.68,14.69 -66.01,35.42 -95.73,113.81 -95.73,210.57l0 264.13c0,1.94 0.94,3.24 2.34,3.24l89.64 0 2.35 -1.3c0,-8.2 0,-17.06 0.46,-25.27l0 -26.13c0.47,-13.17 0.47,-27.86 0.47,-41.68 0,-10.15 0,-19.65 0.47,-28.51l0 -24.19c0.32,-13.17 0.32,-28.51 0.32,-43.62 0,-19.66 0,-37.37 1.87,-54.43 0,-1.29 0.47,-5.18 1.41,-5.83 6.41,-27.21 19.4,-48.59 42.86,-48.59 42.87,0 48.34,70.84 48.34,115.76 0,53.34 -7.82,100.86 -25.81,147.07 -17.52,44.28 -49.75,63.93 -82.75,79.05 -57.73,26.56 -101.68,72.35 -101.68,162.84 0,77.1 32.53,150.96 91.51,150.96 56.16,0 94.33,-65 118.73,-123.75 4.7,30.24 9.23,60.04 14.24,86.39 1.4,8.21 5.94,33.47 7.66,33.47l31.13 0c1.88,-0.64 4.07,-0.64 4.07,-0.64 2.35,0 4.06,0 5.47,-0.65l12.36 0c3.6,-0.65 7.82,-0.65 11.89,-0.65l1.4 -3.02 0 -675.99c0,-91.14 -56.62,-163.92 -121.38,-163.92l-10.96 0zm-68.2 644.02c0.95,-3.88 1.41,-7.77 1.41,-8.85 0.47,-3.24 0.94,-5.19 0.94,-5.19 0.47,-1.94 0.47,-3.23 0.47,-3.23 0,-1.08 0,-1.73 0.47,-2.38l0 -1.3c0.47,-0.64 0.47,-1.29 0.47,-2.59 0.47,-0.65 0.47,-1.29 0.47,-1.29 0,-1.3 0,-1.95 0.47,-2.38 0,-0.65 0,-0.65 0.47,-1.3 0,-0.64 0,-1.29 0.31,-1.94l0 -1.29c0.47,0 0.47,-0.65 0.47,-1.3 0,0 0.47,-0.65 0.93,-3.02 1.88,-15.99 24.41,-40.61 49.75,-40.61 29.41,0 57.1,34.13 57.1,74.08 0,3.24 0,5.62 -0.47,7.56l0 3.24c0,0.65 0,1.3 -0.47,1.94l0 1.73c-0.47,0.65 -0.47,1.3 -0.47,1.94 -0.47,1.3 -0.94,2.6 -1.25,6.92 -5.64,39.3 -27.69,57.01 -60.39,57.01 -0.93,0 -7.5,-3.02 -8.28,-3.67 -0.47,-0.65 -0.94,-0.65 -1.41,-0.65 -0.47,-0.65 -0.47,-0.65 -0.94,-0.65 -0.94,0 -1.41,0 -2.35,-0.64 -0.94,0 -2.34,-0.65 -4.53,-1.95 -18.93,-10.8 -33.17,-34.12 -33.17,-70.19zm467.26 -507.74c-40.36,0 -69.77,35.42 -91.36,74.08l-33.47 -43.85 -48.96 0c-0.94,0 -2.35,1.3 -2.35,3.24l0 671.89c0,1.94 0.93,3.23 2.35,3.23l89.78 0c1.42,0 2.35,-1.29 2.35,-3.23l0 -517.47c0,-17.71 20.65,-45.57 36.61,-45.57l10.17 0c26.12,13.82 34.41,44.92 34.41,80.99l0 12.74c-0.47,2.38 -0.47,4.97 -0.47,5.62 0,8.85 0.47,15.76 2.66,15.76l83.38 0c1.4,0 2.35,-1.94 2.35,-3.67l0 -98.05c0,-74.72 -26.13,-155.71 -87.45,-155.71zm279.69 -136.28c-16.58,0 -33.63,5.18 -50.68,14.69 -66.01,35.42 -95.73,113.81 -95.73,210.57l0 264.13c0,1.94 0.93,3.24 2.34,3.24l89.64 0 2.35 -1.3c0,-8.2 0,-17.06 0.46,-25.27l0 -26.13c0.47,-13.17 0.47,-27.86 0.47,-41.68 0,-10.15 0,-19.65 0.47,-28.51l0 -24.19c0.31,-13.17 0.31,-28.51 0.31,-43.62 0,-19.66 0,-37.37 1.88,-54.43 0,-1.29 0.47,-5.18 1.41,-5.83 6.41,-27.21 19.4,-48.59 42.86,-48.59 42.86,0 48.34,70.84 48.34,115.76 0,53.34 -7.82,100.86 -25.81,147.07 -17.53,44.28 -49.75,63.93 -82.76,79.05 -57.72,26.56 -101.68,72.35 -101.68,162.84 0,77.1 32.54,150.96 91.52,150.96 56.16,0 94.33,-65 118.73,-123.75 4.69,30.24 9.23,60.04 14.23,86.39 1.41,8.21 5.95,33.47 7.67,33.47l31.13 0c1.87,-0.64 4.07,-0.64 4.07,-0.64 2.35,0 4.06,0 5.47,-0.65l12.36 0c3.59,-0.65 7.82,-0.65 11.89,-0.65l1.4 -3.02 0 -675.99c0,-91.14 -56.62,-163.92 -121.39,-163.92l-10.95 0zm-68.2 644.02c0.94,-3.88 1.41,-7.77 1.41,-8.85 0.47,-3.24 0.94,-5.19 0.94,-5.19 0.47,-1.94 0.47,-3.23 0.47,-3.23 0,-1.08 0,-1.73 0.47,-2.38l0 -1.3c0.46,-0.64 0.46,-1.29 0.46,-2.59 0.47,-0.65 0.47,-1.29 0.47,-1.29 0,-1.3 0,-1.95 0.47,-2.38 0,-0.65 0,-0.65 0.48,-1.3 0,-0.64 0,-1.29 0.31,-1.94l0 -1.29c0.47,0 0.47,-0.65 0.47,-1.3 0,0 0.47,-0.65 0.93,-3.02 1.88,-15.99 24.4,-40.61 49.75,-40.61 29.41,0 57.1,34.13 57.1,74.08 0,3.24 0,5.62 -0.47,7.56l0 3.24c0,0.65 0,1.3 -0.48,1.94l0 1.73c-0.46,0.65 -0.46,1.3 -0.46,1.94 -0.47,1.3 -0.94,2.6 -1.25,6.92 -5.64,39.3 -27.69,57.01 -60.39,57.01 -0.93,0 -7.5,-3.02 -8.28,-3.67 -0.48,-0.65 -0.95,-0.65 -1.42,-0.65 -0.46,-0.65 -0.46,-0.65 -0.93,-0.65 -0.94,0 -1.41,0 -2.35,-0.64 -0.94,0 -2.34,-0.65 -4.53,-1.95 -18.94,-10.8 -33.17,-34.12 -33.17,-70.19z"/>
   <path class="fil3" d="M904.9 4193.81l55.89 0c164.68,0 285.47,-114.68 285.47,-258.11l0 -251.25c0,-2.94 -3.38,-5.88 -6.38,-5.88l-202.56 0c-3.01,0 -6.39,2.94 -6.39,5.88l0 184.93c0,49 -33.01,87.23 -87.4,87.23 -52.51,0 -93.03,-35.29 -93.03,-79.39l0 -154.54c0,-115 58.9,-145.72 169.56,-194.72 105.41,-46.07 226.2,-98.67 226.2,-246.35l0 -54.56c0,-152.9 -128.66,-262.35 -302.73,-262.35l-23.26 0c-38.25,0 -88.52,3.92 -123.78,17.31 -108.79,40.84 -182.32,125.46 -182.32,229.69l0 647.22c0,148.33 94.53,334.89 290.73,334.89zm-92.66 -912.2c0,-60.44 58.89,-113.04 133.17,-113.04 73.52,0 123.79,52.6 123.79,120.56 0,3.92 -7.51,25.15 -10.88,33.65 -18.75,44.11 -55.9,70.9 -110.66,70.9 -75.4,0 -135.42,-49.66 -135.42,-112.07zm976.08 444.66c0,33.66 -36.02,79.72 -82.53,79.72l-22.88 0c-44.27,0 -82.53,-39.2 -82.53,-75.8l0 -31.69c1.12,-5.55 1.12,-11.43 1.12,-12.41 0,-21.89 -1.12,-35.29 -6.75,-35.29l-207.44 0c-6.75,0 -8.63,18.3 -8.63,34.63 0,11.44 0.76,20.91 1.88,29.41l0 10.45c0,166.3 79.9,311.69 296.72,311.69l35.26 0c172.94,0 318.11,-149.31 318.11,-294.37 0,-186.56 -141.05,-236.22 -315.86,-293.72 -83.65,-27.77 -100.15,-91.81 -100.15,-161.72 0,-36.6 36.38,-79.4 82.53,-79.4l21 0c39.39,0 79.15,34.31 79.15,68.94l0 140.49c0,4.25 2.25,6.21 6.75,6.21l202.57 0c4.13,0 6.38,-1.96 6.38,-5.88l0 -204.85c0,-20.91 -4.51,-40.84 -14.25,-65.02 -45.02,-114.68 -149.68,-173.16 -292.98,-173.16 -270.46,0 -325.23,158.78 -325.23,366.58 0,143.42 83.28,227.06 237.07,258.75 84.78,16.34 170.69,33.66 170.69,126.44zm651.96 310.71l47.27 0c174.43,0 287.34,-119.58 287.34,-265.62l0 -189.17c0,-1.96 -2.25,-5.88 -5.62,-5.88l-202.56 0c-3.39,0 -5.64,2.94 -5.64,14.38l0 34.3c1.12,9.8 1.12,22.22 1.12,36.59 0,24.83 -1.12,53.26 -4.12,61.1 0,40.19 -43.13,71.55 -88.15,71.55 -5.63,0 -16.5,0 -21,-2.94 -39.4,-10.45 -70.16,-30.38 -70.16,-68.61l0 -440.74c0,-49.66 38.27,-71.55 91.16,-79.39 58.14,6.86 91.15,37.24 91.15,88.86l0 86.91c0,2.94 2.25,5.88 5.64,5.88l202.56 0c3.37,0 5.62,-2.94 5.62,-5.88l0 -148c0,-155.52 -116.28,-265.62 -302.72,-265.62l-19.88 0c-209.32,0 -307.6,164.34 -307.6,332.6l0 407.08c0,152.91 95.28,332.6 295.59,332.6zm799.4 -1093.85c-276.09,0 -332.36,206.82 -332.36,397.29l0 299.27c0,75.8 6.75,181.01 47.26,248.96 52.9,89.85 132.8,148.33 253.22,148.33l56.27 0c60.76,0 103.91,-13.39 153.05,-43.12 129.79,-76.46 147.42,-228.71 147.42,-354.17l0 -299.27c0,-203.87 -58.52,-397.29 -324.86,-397.29zm-93.78 310.06c0,-33.33 24.39,-53.58 54.02,-62.08 7.88,-2.94 23.25,-6.86 25.5,-6.86l21.01 0c38.64,0 61.9,21.24 72.03,47.05 3.37,6.53 7.49,19.93 7.49,21.89l0 479.29c0,0 -1.12,3.92 -1.12,4.9l0 0.98c-3,2.94 -3,2.94 -3,3.92 0,0.98 0,1.96 -1.12,2.62 -1.13,0.98 -1.13,1.96 -1.13,1.96 -16.88,29.73 -43.14,47.04 -82.15,47.04l-8.63 0c-39.77,0 -82.9,-34.63 -82.9,-68.93l0 -471.78zm667.71 -682.51c-82.15,0 -126.03,58.48 -126.03,115.66 0,72.53 69.02,121.53 137.3,121.53 73.15,0 134.66,-57.5 134.66,-117.61 0,-55.55 -53.64,-119.58 -119.67,-119.58l-26.26 0zm-94.15 529.61c-2.63,0 -4.88,1.96 -4.88,4.9l0 926.89c0,2.94 2.25,4.9 5.63,4.9l221.7 0c3.37,0 6.75,-1.96 6.75,-4.9l0 -926.89c0,-2.94 -3.38,-4.9 -6.75,-4.9l-222.45 0zm429.52 -383.57l0 987.34c0,152.9 95.29,332.92 295.61,332.92l47.26 0c173.68,0 288.84,-119.58 288.84,-265.95l0 -89.84c0,-2.94 -3.38,-4.9 -6.37,-4.9l-203.32 0c-5.63,0 -6.75,12.41 -6.75,23.19 0,5.56 0,11.44 1.12,16.01l0 22.22c0,46.72 -40.51,83.97 -88.9,83.97 -4.5,0 -7.87,0 -11.26,-0.98l-5.25 0c-3.37,-0.98 -5.62,-0.98 -9,-0.98 -40.52,-13.4 -67.9,-38.23 -67.9,-77.44l0 -591.35 241.58 0c3.76,0 6.01,-1.96 6.01,-4.9l0 -165.65c0,-1.96 -2.25,-5.88 -5.63,-5.88l-241.96 0 0 -257.78c0,-1.96 -2.25,-4.9 -5.63,-4.9l-222.82 0c-2.25,0 -5.63,1.96 -5.63,4.9zm1059.73 42.15c-39.76,0 -80.65,7.84 -121.54,22.21 -158.3,53.58 -229.58,172.18 -229.58,318.55l0 399.58c0,2.94 2.25,4.9 5.63,4.9l214.95 0 5.62 -1.96c0,-12.42 0,-25.81 1.13,-38.23l0 -39.53c1.12,-19.93 1.12,-42.15 1.12,-63.06 0,-15.35 0,-29.73 1.13,-43.12l0 -36.6c0.76,-19.93 0.76,-43.12 0.76,-65.99 0,-29.74 0,-56.53 4.5,-82.34 0,-1.96 1.12,-7.84 3.37,-8.82 15.38,-41.16 46.52,-73.51 102.79,-73.51 102.78,0 115.9,107.16 115.9,175.12 0,80.7 -18.75,152.58 -61.89,222.5 -42.01,66.97 -119.29,96.7 -198.44,119.57 -138.42,40.19 -243.84,109.45 -243.84,246.35 0,116.64 78.03,228.37 219.45,228.37 134.68,0 226.2,-98.34 284.72,-187.21 11.26,45.74 22.14,90.83 34.14,130.69 3.37,12.42 14.26,50.64 18.38,50.64l74.65 0c4.51,-0.98 9.75,-0.98 9.75,-0.98 5.63,0 9.76,0 13.14,-0.98l29.63 0c8.62,-0.98 18.76,-0.98 28.51,-0.98l3.38 -4.57 0 -1022.63c0,-137.87 -135.8,-247.97 -291.1,-247.97l-26.26 0zm-163.55 974.27c2.25,-5.89 3.37,-11.77 3.37,-13.4 1.13,-4.9 2.25,-7.84 2.25,-7.84 1.13,-2.94 1.13,-4.9 1.13,-4.9 0,-1.64 0,-2.62 1.12,-3.6l0 -1.96c1.13,-0.98 1.13,-1.96 1.13,-3.92 1.12,-0.98 1.12,-1.96 1.12,-1.96 0,-1.96 0,-2.94 1.13,-3.59 0,-0.98 0,-0.98 1.12,-1.96 0,-0.98 0,-1.96 0.75,-2.94l0 -1.96c1.13,0 1.13,-0.98 1.13,-1.96 0,0 1.12,-0.98 2.25,-4.58 4.51,-24.17 58.52,-61.42 119.29,-61.42 70.52,0 136.92,51.62 136.92,112.06 0,4.91 0,8.5 -1.13,11.44l0 4.9c0,0.98 0,1.96 -1.12,2.94l0 2.61c-1.13,0.98 -1.13,1.97 -1.13,2.95 -1.12,1.96 -2.25,3.92 -2.99,10.45 -13.51,59.46 -66.4,86.25 -144.8,86.25 -2.25,0 -18.01,-4.57 -19.88,-5.55 -1.13,-0.98 -2.25,-0.98 -3.38,-0.98 -1.12,-0.98 -1.12,-0.98 -2.25,-0.98 -2.25,0 -3.38,0 -5.63,-0.98 -2.25,0 -5.62,-0.98 -10.88,-2.94 -45.39,-16.34 -79.52,-51.62 -79.52,-106.18zm1120.49 -768.12c-96.78,0 -167.3,53.59 -219.07,112.07l-80.28 -66.33 -117.41 0c-2.25,0 -5.63,1.97 -5.63,4.91l0 1016.41c0,2.94 2.26,4.9 5.63,4.9l215.33 0c3.37,0 5.62,-1.96 5.62,-4.9l0 -782.81c0,-26.79 49.51,-68.94 87.78,-68.94l24.39 0c62.64,20.91 82.52,67.96 82.52,122.52l0 19.28c-1.13,3.59 -1.13,7.51 -1.13,8.49 0,13.4 1.13,23.85 6.38,23.85l199.95 0c3.37,0 5.62,-2.94 5.62,-5.55l0 -148.33c0,-113.05 -62.64,-235.57 -209.7,-235.57z"/>
   <polygon class="fil0" points="6782.16,8292.84 6782.16,10293.23 4577.23,10293.23 4577.23,8292.84 "/>
   <path class="fil3" d="M1159.99 9706.98c0,-17.92 15.36,-32.77 32.69,-32.77 16.83,0 32.93,13.79 32.93,29.71 0,21.81 -14.26,32.77 -36.62,32.77 -0.62,0 -2.83,-0.58 -4.67,-1.29l-3.19 -1.06c-13.28,-4.84 -21.14,-14.51 -21.14,-27.36zm78.27 83.71c20.9,-1.06 49.28,-3.42 70.05,-16.5 38.71,-24.41 44.11,-82.65 44.11,-125.8l0 -134.41c0,-72.86 -15.48,-143.02 -109.85,-143.02 -5.41,-0.35 -10.45,-0.35 -15.85,-0.7l-16.11 0c-8.96,-0.71 -19.04,-0.71 -28.74,-0.71 -14.02,0 -26.91,0.35 -39.45,1.06 -83.68,4.48 -111.46,61.78 -111.46,135.12l0 212.34c0,57.89 12.29,118.49 82.7,128.74 33.68,4.84 68.21,5.9 102.36,5.9 34.53,0 82.58,-3.18 115.88,-12.38l0 -50.7c-39.44,12.15 -99.41,12.15 -141.07,12.15 -16.22,0 -71.39,-3.78 -86.14,-8.96 -16.71,-5.9 -22.86,-27.59 -22.86,-43.39l0 -282.73c0,-38.67 47.2,-46.92 78.16,-46.92l89.09 0c1.85,0 12.53,2.71 17.32,4.12 13.65,4.13 29.99,13.44 29.99,32.07l0 254.55c0,12.73 -7.13,21.34 -19.91,24.88l0 -224.84c0,-37.38 -32.81,-66.73 -70.9,-66.73l-6.52 0c-52.84,0 -85.52,43.27 -85.52,91.61l0 107.05c0,1.06 0.37,1.3 1.48,1.3l52.34 0 1.48 -0.59 0 -29.36c0,-21.46 0,-42.91 1.34,-63.9 0,-1.06 0.38,-7.67 1.48,-8.02 4.06,-10.96 11.31,-19.57 25.07,-19.57 24.95,0 28.27,28.65 28.27,48.34 0,42.8 -15.24,74.51 -60.09,89.37 -36.5,12.14 -62.43,29.71 -62.43,66.97 0,31.71 18.68,61.31 53.21,61.31 32.68,0 54.92,-26.53 69.31,-50.23 1.35,6.84 10.07,47.04 13.26,52.23l0 0.35zm310.17 -320.57c-31.71,0 -54.82,19.33 -71.77,40.44l-26.3 -23.93 -38.46 0c-0.74,0 -1.84,0.7 -1.84,1.76l0 366.8c0,1.06 0.74,1.76 1.84,1.76l70.54 0c1.11,0 1.84,-0.7 1.84,-1.76l0 -282.5c0,-9.66 16.22,-24.87 28.75,-24.87l8 0c20.52,7.54 27.02,24.52 27.02,44.21l0 6.96c-0.36,1.29 -0.36,2.71 -0.36,3.06 0,4.84 0.36,8.61 2.09,8.61l65.5 0c1.1,0 1.84,-1.06 1.84,-2.01l0 -53.52c0,-40.8 -20.52,-85.01 -68.69,-85.01zm207.68 -7.9c-90.45,0 -108.89,74.63 -108.89,143.37l0 108c0,27.35 2.22,65.31 15.49,89.84 17.32,32.42 43.5,53.52 82.94,53.52l18.44 0c19.91,0 34.04,-4.83 50.13,-15.56 42.52,-27.59 48.3,-82.53 48.3,-127.8l0 -108c0,-73.57 -19.17,-143.37 -106.41,-143.37zm-30.73 111.89c0,-12.03 7.98,-19.34 17.7,-22.4 2.57,-1.06 7.62,-2.48 8.36,-2.48l6.87 0c12.66,0 20.28,7.66 23.6,16.98 1.11,2.36 2.45,7.19 2.45,7.9l0 172.96c0,0 -0.36,1.41 -0.36,1.77l0 0.35c-0.98,1.06 -0.98,1.06 -0.98,1.42 0,0.35 0,0.7 -0.38,0.94 -0.36,0.35 -0.36,0.71 -0.36,0.71 -5.54,10.73 -14.14,16.98 -26.91,16.98l-2.83 0c-13.03,0 -27.16,-12.5 -27.16,-24.88l0 -170.25zm277.97 282.84l15.48 0c57.14,0 94.13,-43.15 94.13,-95.85l0 -68.26c0,-0.71 -0.74,-2.13 -1.84,-2.13l-66.36 0c-1.11,0 -1.85,1.06 -1.85,5.19l0 12.38c0.38,3.54 0.38,8.02 0.38,13.21 0,8.96 -0.38,19.21 -1.36,22.04 0,14.5 -14.13,25.82 -28.88,25.82 -1.84,0 -5.4,0 -6.88,-1.06 -12.9,-3.77 -22.98,-10.96 -22.98,-24.76l0 -159.05c0,-17.92 12.54,-25.82 29.86,-28.65 19.05,2.48 29.86,13.44 29.86,32.07l0 31.36c0,1.07 0.74,2.13 1.85,2.13l66.36 0c1.1,0 1.84,-1.06 1.84,-2.13l0 -53.4c0,-56.13 -38.09,-95.86 -99.17,-95.86l-6.51 0c-68.57,0 -100.77,59.31 -100.77,120.03l0 146.9c0,55.18 31.22,120.02 96.84,120.02zm169.33 -491.29l0 489.53c0,1.06 1.11,1.76 2.21,1.76l70.17 0c1.1,0 1.84,-0.7 1.84,-1.76l0 -120.03 10.81 -11.08 132.1 131.81 0.74 0c1.47,-1.06 2.83,-2.47 3.93,-3.42 1.11,-0.7 1.85,-1.41 2.58,-2.12l2.09 -2.12c0.74,-0.59 1.85,-1.65 2.95,-2.36l2.46 -2.36c13.02,-11.43 26.3,-23.22 38.21,-35.6l0 -0.71c-2.95,-3.42 -6.14,-6.48 -7.62,-7.9 -0.36,-0.71 -0.73,-1.06 -0.98,-1.06l0 -0.35 -0.36 -0.36c0,-0.35 0,-0.35 -0.38,-0.35l-10.44 -9.91c-4.67,-4.48 -6.52,-6.6 -7.62,-8.01l-7.49 -7.19c-2.59,-2.48 -4.42,-4.13 -5.78,-5.9l-3.93 -3.77c-29.98,-29.71 -59.84,-59.31 -88.6,-90.08l133.2 -134.88 0 -1.06c-17.32,-16.15 -34.53,-32.07 -52.22,-47.87l-0.74 0 -142.91 143.13 0 -265.98c0,-0.71 -0.74,-1.77 -1.84,-1.77l-70.17 0c-0.74,0 -2.21,0.71 -2.21,1.77zm296.76 14.85l0 356.3c0,55.18 31.22,120.14 96.84,120.14l15.47 0c56.9,0 94.63,-43.15 94.63,-95.97l0 -32.42c0,-1.06 -1.1,-1.77 -2.09,-1.77l-66.6 0c-1.85,0 -2.21,4.48 -2.21,8.37 0,2.01 0,4.13 0.36,5.78l0 8.02c0,16.86 -13.27,30.3 -29.12,30.3 -1.48,0 -2.58,0 -3.69,-0.36l-1.72 0c-1.1,-0.35 -1.84,-0.35 -2.95,-0.35 -13.27,-4.83 -22.24,-13.79 -22.24,-27.94l0 -213.4 79.14 0c1.23,0 1.97,-0.71 1.97,-1.77l0 -59.78c0,-0.71 -0.74,-2.12 -1.85,-2.12l-79.26 0 0 -93.03c0,-0.7 -0.74,-1.76 -1.84,-1.76l-72.99 0c-0.74,0 -1.85,0.7 -1.85,1.76zm242.45 -14.85l0 489.53c0,1.06 1.1,1.76 2.21,1.76l70.04 0c1.11,0 2.22,-0.7 2.22,-1.76l0 -277.07c0,-14.74 12.53,-30.3 28.87,-30.3l8.61 0c18.06,7.9 25.92,21.69 25.92,40.32l0 267.05c0,1.06 1.1,1.76 2.22,1.76l65.24 0c1.11,0 1.85,-0.7 1.85,-1.76l0 -303.95c0,-39.62 -24.83,-81 -71.76,-81 -25.32,0 -45.84,11.67 -60.34,33.01l-0.61 0 0 -137.59c0,-1.06 -1.11,-1.77 -2.22,-1.77l-70.04 0c-0.74,0 -2.21,0.71 -2.21,1.77zm361.77 547.89l18.31 0c53.94,0 93.52,-41.39 93.52,-93.15l0 -90.66c0,-1.06 -1.12,-2.12 -2.1,-2.12l-66.36 0c-0.98,0 -2.08,1.06 -2.08,2.12l0 66.73c0,17.69 -10.82,31.48 -28.63,31.48 -17.21,0 -30.48,-12.73 -30.48,-28.65l0 -55.77c0,-41.5 19.29,-52.58 55.54,-70.27 34.53,-16.62 74.11,-35.6 74.11,-88.89l0 -19.69c0,-55.18 -42.15,-94.68 -99.17,-94.68l-7.62 0c-12.54,0 -29.01,1.42 -40.56,6.25 -35.63,14.74 -59.72,45.27 -59.72,82.88l0 233.57c0,53.53 30.97,120.85 95.24,120.85zm-30.36 -329.18c0,-21.82 19.3,-40.8 43.63,-40.8 24.09,0 40.56,18.98 40.56,43.51 0,1.41 -2.46,9.08 -3.57,12.14 -6.15,15.92 -18.31,25.59 -36.25,25.59 -24.7,0 -44.37,-17.92 -44.37,-40.44zm204.73 271.29c0,1.06 1.11,1.77 2.21,1.77l38.46 0c8.36,-10.73 14.87,-23.11 19.91,-33.13l4.3 -8.26 0.62 0c0,35.84 33.79,66.26 73.6,66.26 57.14,0 67.96,-62.13 67.96,-108.11l0 -228.5c0,-38.31 -28.76,-75.69 -72.99,-75.69 -24.7,0 -45.23,11.79 -58.87,34.19l-0.98 0 0 -138.53c0,-0.71 -0.74,-1.77 -1.84,-1.77l-70.17 0c-0.74,0 -2.21,0.71 -2.21,1.77l0 490zm74.22 -274.71c0,-21.46 14.26,-33.13 35.39,-33.13 1.84,0 7.13,2.35 9.33,3.42 16.72,8.6 19.67,30.41 19.67,47.39l0 182.16c0,20.63 -12.9,33.13 -31.45,33.13 -21.14,0 -32.94,-15.56 -32.94,-33.13l0 -199.84zm304.63 -185.23c-13.03,0 -26.42,2.83 -39.81,8.02 -51.86,19.34 -75.21,62.13 -75.21,114.95l0 144.2c0,1.06 0.74,1.77 1.84,1.77l70.42 0 1.84 -0.71c0,-4.48 0,-9.31 0.37,-13.8l0 -14.26c0.37,-7.19 0.37,-15.21 0.37,-22.76 0,-5.54 0,-10.73 0.37,-15.56l0 -13.2c0.25,-7.2 0.25,-15.57 0.25,-23.82 0,-10.73 0,-20.4 1.47,-29.71 0,-0.71 0.36,-2.83 1.1,-3.18 5.05,-14.86 15.24,-26.53 33.68,-26.53 33.66,0 37.97,38.67 37.97,63.19 0,29.12 -6.15,55.06 -20.29,80.29 -13.75,24.17 -39.07,34.9 -65,43.16 -45.34,14.5 -79.87,39.49 -79.87,88.89 0,42.09 25.56,82.42 71.88,82.42 44.12,0 74.11,-35.49 93.28,-67.56 3.68,16.51 7.24,32.78 11.18,47.16 1.1,4.48 4.67,18.27 6.01,18.27l24.46 0c1.47,-0.35 3.19,-0.35 3.19,-0.35 1.85,0 3.2,0 4.31,-0.35l9.7 0c2.84,-0.36 6.15,-0.36 9.34,-0.36l1.1 -1.65 0 -369.03c0,-49.75 -44.48,-89.49 -95.35,-89.49l-8.6 0zm-53.57 351.59c0.73,-2.13 1.1,-4.25 1.1,-4.84 0.37,-1.77 0.73,-2.83 0.73,-2.83 0.38,-1.06 0.38,-1.77 0.38,-1.77 0,-0.59 0,-0.94 0.36,-1.29l0 -0.71c0.37,-0.35 0.37,-0.71 0.37,-1.42 0.37,-0.35 0.37,-0.7 0.37,-0.7 0,-0.71 0,-1.06 0.37,-1.3 0,-0.35 0,-0.35 0.37,-0.71 0,-0.35 0,-0.7 0.24,-1.06l0 -0.71c0.38,0 0.38,-0.35 0.38,-0.7 0,0 0.36,-0.36 0.73,-1.65 1.48,-8.73 19.17,-22.17 39.08,-22.17 23.1,0 44.85,18.63 44.85,40.44 0,1.77 0,3.07 -0.36,4.13l0 1.77c0,0.35 0,0.7 -0.38,1.06l0 0.94c-0.36,0.35 -0.36,0.71 -0.36,1.06 -0.38,0.71 -0.74,1.42 -0.98,3.77 -4.43,21.46 -21.76,31.13 -47.44,31.13 -0.74,0 -5.9,-1.65 -6.51,-2 -0.38,-0.36 -0.74,-0.36 -1.11,-0.36 -0.37,-0.35 -0.37,-0.35 -0.74,-0.35 -0.74,0 -1.1,0 -1.84,-0.35 -0.74,0 -1.85,-0.36 -3.57,-1.07 -14.87,-5.89 -26.04,-18.62 -26.04,-38.31zm367.05 -277.19c-31.71,0 -54.81,19.33 -71.77,40.44l-26.3 -23.93 -38.46 0c-0.74,0 -1.84,0.7 -1.84,1.76l0 366.8c0,1.06 0.74,1.76 1.84,1.76l70.54 0c1.11,0 1.84,-0.7 1.84,-1.76l0 -282.5c0,-9.66 16.23,-24.87 28.75,-24.87l8 0c20.52,7.54 27.02,24.52 27.02,44.21l0 6.96c-0.36,1.29 -0.36,2.71 -0.36,3.06 0,4.84 0.36,8.61 2.09,8.61l65.5 0c1.1,0 1.84,-1.06 1.84,-2.01l0 -53.52c0,-40.8 -20.52,-85.01 -68.69,-85.01zm249.08 0c-31.7,0 -54.81,19.33 -71.76,40.44l-26.3 -23.93 -38.46 0c-0.74,0 -1.84,0.7 -1.84,1.76l0 366.8c0,1.06 0.74,1.76 1.84,1.76l70.54 0c1.1,0 1.83,-0.7 1.83,-1.76l0 -282.5c0,-9.66 16.23,-24.87 28.76,-24.87l7.99 0c20.53,7.54 27.03,24.52 27.03,44.21l0 6.96c-0.37,1.29 -0.37,2.71 -0.37,3.06 0,4.84 0.37,8.61 2.1,8.61l65.49 0c1.11,0 1.85,-1.06 1.85,-2.01l0 -53.52c0,-40.8 -20.52,-85.01 -68.7,-85.01zm137.14 -142.31c-26.91,0 -41.28,21.11 -41.28,41.74 0,26.17 22.61,43.86 44.97,43.86 23.96,0 44.11,-20.75 44.11,-42.45 0,-20.04 -17.57,-43.15 -39.2,-43.15l-8.6 0zm-30.84 191.12c-0.86,0 -1.6,0.71 -1.6,1.77l0 334.49c0,1.06 0.74,1.76 1.84,1.76l72.63 0c1.1,0 2.21,-0.7 2.21,-1.76l0 -334.49c0,-1.06 -1.11,-1.77 -2.21,-1.77l-72.87 0zm239.99 -56.71c-90.44,0 -108.88,74.63 -108.88,143.37l0 108c0,27.35 2.22,65.31 15.49,89.84 17.32,32.42 43.5,53.52 82.94,53.52l18.44 0c19.9,0 34.04,-4.83 50.13,-15.56 42.52,-27.59 48.3,-82.53 48.3,-127.8l0 -108c0,-73.57 -19.17,-143.37 -106.42,-143.37zm-30.72 111.89c0,-12.03 7.98,-19.34 17.69,-22.4 2.58,-1.06 7.62,-2.48 8.36,-2.48l6.88 0c12.65,0 20.27,7.66 23.6,16.98 1.1,2.36 2.45,7.19 2.45,7.9l0 172.96c0,0 -0.37,1.41 -0.37,1.77l0 0.35c-0.98,1.06 -0.98,1.06 -0.98,1.42 0,0.35 0,0.7 -0.37,0.94 -0.37,0.35 -0.37,0.71 -0.37,0.71 -5.53,10.73 -14.13,16.98 -26.91,16.98l-2.82 0c-13.03,0 -27.16,-12.5 -27.16,-24.88l0 -170.25z"/>
   <image x="473.97" y="9346.79" width="467.95" height="547.75" xlink:href="rockthebarrio pegata 3_Images\rockthebarrio pegata 3_ImgID1.png"/>
   <g style="clip-path:url(#id0)">
    <image style="clip-path:url(#id1)" x="4532.46" y="8161.15" width="2379.45" height="2282.99" xlink:href="rockthebarrio pegata 3_Images\rockthebarrio pegata 3_ImgID2.png"/>
   </g>
  </g>
 </g>
</svg>
